<svg xmlns="http://www.w3.org/2000/svg" version="1.1" xmlns:xlink="http://www.w3.org/1999/xlink" xmlns:svgjs="http://svgjs.dev/svgjs" width="2000" height="1999" viewBox="0 0 2000 1999"><g transform="matrix(1,0,0,1,-0.431486880466764,-0.4312711370263287)"><svg viewBox="0 0 343 343" data-background-color="#ffffff" preserveAspectRatio="xMidYMid meet" height="1999" width="2000" xmlns="http://www.w3.org/2000/svg" xmlns:xlink="http://www.w3.org/1999/xlink"><g id="tight-bounds" transform="matrix(1,0,0,1,0.0740000000000407,0.07400000000001228)"><svg viewBox="0 0 342.85155851775386 342.85155851775386" height="342.85155851775386" width="342.85155851775386"><g><svg></svg></g><g><svg viewBox="0 0 342.85155851775386 342.85155851775386" height="342.85155851775386" width="342.85155851775386"><g><path d="M0 171.426c0-94.676 76.75-171.426 171.426-171.426 94.676 0 171.426 76.75 171.426 171.426 0 94.676-76.75 171.426-171.426 171.426-94.676 0-171.426-76.75-171.426-171.426zM171.426 333.064c89.27 0 161.638-72.368 161.638-161.638 0-89.27-72.368-161.638-161.638-161.638-89.27 0-161.638 72.368-161.638 161.638 0 89.27 72.368 161.638 161.638 161.638z" data-fill-palette-color="tertiary" fill="#ff5858" stroke="transparent"></path><ellipse rx="164.56874808852186" ry="164.56874808852186" cx="171.42577925887693" cy="171.42577925887693" fill="#ff5858" stroke="transparent" stroke-width="0" fill-opacity="1" data-fill-palette-color="tertiary"></ellipse></g><g transform="matrix(1,0,0,1,64.84655864529837,117.15723950013887)"><svg viewBox="0 0 213.1584412271571 108.53707951747612" height="108.53707951747612" width="213.1584412271571"><g><svg viewBox="0 0 213.1584412271571 108.53707951747612" height="108.53707951747612" width="213.1584412271571"><g><svg viewBox="0 0 213.1584412271571 108.53707951747612" height="108.53707951747612" width="213.1584412271571"><g id="textblocktransform"><svg viewBox="0 0 213.1584412271571 108.53707951747612" height="108.53707951747612" width="213.1584412271571" id="textblock"><g><svg viewBox="0 0 213.1584412271571 108.53707951747612" height="108.53707951747612" width="213.1584412271571"><g transform="matrix(1,0,0,1,0,0)"><svg width="213.1584412271571" viewBox="1.130057803468208 -36.75 72.4599421965318 36.9" height="108.53707951747612" data-palette-color="#ffffff"><path d="M18.65 0.15L18.65 0.15Q15.3 0.15 13.13-1.15 10.95-2.45 9.58-4.9 8.2-7.35 7.1-10.85L7.1-10.85 1.5-28.8Q0.7-31.3 1.63-33.18 2.55-35.05 4.95-35.75L4.95-35.75Q7.15-36.4 8.95-35.48 10.75-34.55 11.4-32.35L11.4-32.35 16.85-15.05Q17.7-12.25 19.03-11.33 20.35-10.4 21.9-10.9L21.9-10.9Q23.5-11.35 23.95-12.73 24.4-14.1 23.7-16.9L23.7-16.9Q22.55-21.9 22.15-24.75 21.75-27.6 21.75-29.25L21.75-29.25Q21.75-32.05 23.28-34.08 24.8-36.1 28-36.1L28-36.1Q31.15-36.1 32.58-34.08 34-32.05 34-29.25L34-29.25Q34-27.6 33.55-25.85 33.1-24.1 32.5-22.25L32.5-22.25 28.05-8.8Q27.15-6.1 26.08-4.08 25-2.05 23.28-0.95 21.55 0.15 18.65 0.15ZM36.3-31.95L36.3-31.95Q36.3-34.1 37.62-35.43 38.95-36.75 41.3-36.75L41.3-36.75Q43.8-36.75 45.02-35.45 46.25-34.15 46.25-32L46.25-32Q46.25-29.9 45.02-28.63 43.8-27.35 41.3-27.35L41.3-27.35Q38.85-27.35 37.57-28.63 36.3-29.9 36.3-31.95ZM41.3 0L41.3 0Q38.95 0 37.8-1.3 36.65-2.6 36.65-4.55L36.65-4.55 36.65-21.65Q36.65-23.8 37.8-25.05 38.95-26.3 41.3-26.3L41.3-26.3Q43.65-26.3 44.82-25.05 46-23.8 46-21.75L46-21.75 46-4.55Q46-2.6 44.77-1.3 43.55 0 41.3 0ZM61.75 0L61.75 0Q58.5 0 56.2-1.9 53.9-3.8 52.4-8.2L52.4-8.2 48.45-19.6Q47.65-21.85 48.47-23.75 49.3-25.65 51.55-26.15L51.55-26.15Q53.55-26.6 55.07-25.75 56.6-24.9 57.25-22.9L57.25-22.9 61.15-11.45Q61.85-9.45 62.87-8.5 63.9-7.55 65.4-8.05L65.4-8.05Q66.8-8.6 66.92-9.88 67.05-11.15 66.34-12.85L66.34-12.85Q65.75-14.4 64.75-15.5 63.75-16.6 62.95-17.8 62.15-19 62.15-20.8L62.15-20.8Q62.15-23.4 63.82-24.88 65.5-26.35 68.25-26.25L68.25-26.25Q70.59-26.2 72.09-24.6 73.59-23 73.59-20.55L73.59-20.55Q73.59-19.2 73.15-17.65 72.7-16.1 72.15-14.4L72.15-14.4 70.15-8.1Q69.34-5.6 68.37-3.78 67.4-1.95 65.87-0.98 64.34 0 61.75 0Z" opacity="1" transform="matrix(1,0,0,1,0,0)" fill="#ffffff" class="wordmark-text-0" data-fill-palette-color="quaternary" id="text-0"></path></svg></g></svg></g></svg></g></svg></g></svg></g></svg></g></svg></g><defs></defs></svg><rect width="342.85155851775386" height="342.85155851775386" fill="none" stroke="none" visibility="hidden"></rect></g></svg></g></svg>