<?xml version="1.0" encoding="UTF-8"?>
<svg version="1.1" xmlns="http://www.w3.org/2000/svg" width="512" height="512">
<path d="M0 0 C1.23556641 0.01740234 1.23556641 0.01740234 2.49609375 0.03515625 C3.32238281 0.04417969 4.14867187 0.05320313 5 0.0625 C5.63808594 0.07410156 6.27617187 0.08570313 6.93359375 0.09765625 C6.4745855 4.87134207 5.75695045 7.33318065 2.93359375 11.09765625 C2.20878291 14.75040094 2.20878291 14.75040094 1.93359375 18.09765625 C5.62808759 14.99972374 6.38494083 11.16344748 7.7734375 6.69140625 C9.08220663 3.76540388 10.17836904 2.68111873 12.93359375 1.09765625 C15.62109375 0.84765625 15.62109375 0.84765625 17.93359375 1.09765625 C18.93359375 2.09765625 18.93359375 2.09765625 19.05859375 5.41015625 C18.96102671 8.28838388 18.68859392 10.38325088 17.93359375 13.09765625 C23.02275212 16.05288164 23.02275212 16.05288164 28.68359375 17.34765625 C32.30833104 15.33391331 33.4117027 11.8301153 34.93359375 8.09765625 C36.58359375 8.09765625 38.23359375 8.09765625 39.93359375 8.09765625 C40.26359375 9.74765625 40.59359375 11.39765625 40.93359375 13.09765625 C41.71734375 13.05640625 42.50109375 13.01515625 43.30859375 12.97265625 C45.93359375 13.09765625 45.93359375 13.09765625 47.93359375 15.09765625 C48.64070053 16.74757207 49.31303364 18.41327881 49.93359375 20.09765625 C59.62092601 16.60865731 65.9012284 12.7457532 72.453125 4.76953125 C73.93359375 3.09765625 73.93359375 3.09765625 75.93359375 2.09765625 C78.99609375 1.97265625 78.99609375 1.97265625 81.93359375 2.09765625 C82.93359375 3.09765625 82.93359375 3.09765625 83.30859375 5.91015625 C83.28823408 10.81683604 81.0502709 14.95073543 79.02734375 19.328125 C77.6887165 22.22144002 77.6887165 22.22144002 77.93359375 26.09765625 C78.53171875 24.92203125 79.12984375 23.74640625 79.74609375 22.53515625 C80.30296875 21.44847656 80.30296875 21.44847656 80.87109375 20.33984375 C81.8378751 18.29965076 82.53640506 16.29809341 83.24609375 14.16015625 C84.93359375 11.09765625 84.93359375 11.09765625 88.49609375 10.03515625 C91.93359375 10.09765625 91.93359375 10.09765625 93.93359375 12.09765625 C94.1640625 14.33984375 94.1640625 14.33984375 94.12109375 16.97265625 C94.11142578 18.26816406 94.11142578 18.26816406 94.1015625 19.58984375 C93.94753042 21.88957851 93.57521151 23.89049114 92.93359375 26.09765625 C93.49046875 25.87078125 94.04734375 25.64390625 94.62109375 25.41015625 C97.84364794 24.97467595 99.27062851 26.37975662 101.93359375 28.09765625 C101.959375 27.26621094 101.98515625 26.43476563 102.01171875 25.578125 C102.0684375 24.49144531 102.12515625 23.40476562 102.18359375 22.28515625 C102.23 21.20621094 102.27640625 20.12726562 102.32421875 19.015625 C102.93359375 16.09765625 102.93359375 16.09765625 104.75390625 14.23046875 C107.90769952 12.59140056 110.44210081 12.77436987 113.93359375 13.09765625 C115.93359375 15.09765625 115.93359375 15.09765625 116.05859375 18.22265625 C116.01734375 19.17140625 115.97609375 20.12015625 115.93359375 21.09765625 C113.95359375 21.59265625 113.95359375 21.59265625 111.93359375 22.09765625 C111.82107642 28.17359187 112.24099017 34.06211077 112.93359375 40.09765625 C116.18922445 37.92723578 116.59823769 37.0838074 117.99609375 33.59765625 C119.12273131 30.81047257 119.7858583 29.2453917 121.93359375 27.09765625 C124.7181888 26.74065689 126.27186158 26.61511047 128.578125 28.296875 C130.40026945 30.71764904 130.26920084 32.21784725 130.18359375 35.22265625 C130.1578125 36.19074219 130.13203125 37.15882812 130.10546875 38.15625 C129.87111945 42.16681863 129.45600047 46.11430502 128.93359375 50.09765625 C130.04734375 49.32421875 130.04734375 49.32421875 131.18359375 48.53515625 C133.93359375 47.09765625 133.93359375 47.09765625 136.24609375 47.41015625 C137.08140625 47.75046875 137.08140625 47.75046875 137.93359375 48.09765625 C138.32546875 47.43765625 138.71734375 46.77765625 139.12109375 46.09765625 C140.93359375 44.09765625 140.93359375 44.09765625 143.62109375 43.84765625 C144.38421875 43.93015625 145.14734375 44.01265625 145.93359375 44.09765625 C149.87063277 50.00321478 147.79593264 58.44532767 146.93359375 65.09765625 C148.91359375 64.76765625 150.89359375 64.43765625 152.93359375 64.09765625 C153.09794922 62.88529297 153.09794922 62.88529297 153.265625 61.6484375 C153.42417969 60.57980469 153.58273437 59.51117188 153.74609375 58.41015625 C153.97232422 56.82654297 153.97232422 56.82654297 154.203125 55.2109375 C154.96742998 51.95344514 155.9614312 49.78873519 157.93359375 47.09765625 C160.49609375 46.16015625 160.49609375 46.16015625 162.93359375 46.09765625 C164.93359375 48.09765625 164.93359375 48.09765625 164.9453125 51.1796875 C164.83832031 52.41074219 164.73132813 53.64179687 164.62109375 54.91015625 C164.47220703 56.74513672 164.47220703 56.74513672 164.3203125 58.6171875 C163.99980304 61.5017726 163.56423365 64.26786181 162.93359375 67.09765625 C163.71734375 67.18015625 164.50109375 67.26265625 165.30859375 67.34765625 C167.93359375 68.09765625 167.93359375 68.09765625 169.24609375 69.66015625 C171.32454627 77.02921517 169.3039583 84.75641759 167.93359375 92.09765625 C168.87460937 91.90300781 169.815625 91.70835938 170.78515625 91.5078125 C173.93359375 91.09765625 173.93359375 91.09765625 176.30859375 92.53515625 C177.11296875 93.30859375 177.11296875 93.30859375 177.93359375 94.09765625 C177.64961358 100.77119034 174.85553843 104.8084281 170.93359375 110.09765625 C172.25359375 110.42765625 173.57359375 110.75765625 174.93359375 111.09765625 C178.68475039 107.11205232 178.66912686 102.6696899 179.10546875 97.49804688 C179.40263887 94.62064006 179.63961229 92.51317194 181.33203125 90.12109375 C182.93359375 89.09765625 182.93359375 89.09765625 185.55859375 89.28515625 C187.93359375 90.09765625 187.93359375 90.09765625 188.93359375 92.09765625 C189.96987547 101.18732734 187.95695906 107.99344898 183.93359375 116.09765625 C184.73796875 116.24203125 185.54234375 116.38640625 186.37109375 116.53515625 C188.93359375 117.09765625 188.93359375 117.09765625 189.93359375 118.09765625 C189.78306622 125.92508785 186.37694032 132.18990288 182.93359375 139.09765625 C183.92359375 139.75765625 184.91359375 140.41765625 185.93359375 141.09765625 C186.05734375 139.86015625 186.18109375 138.62265625 186.30859375 137.34765625 C187.11658925 131.26075685 187.11658925 131.26075685 188.93359375 129.09765625 C192.05859375 128.34765625 192.05859375 128.34765625 194.93359375 128.09765625 C197.11585612 131.37104981 197.14381975 131.76367008 196.62109375 135.41015625 C196.45867187 136.59351563 196.45867187 136.59351563 196.29296875 137.80078125 C195.41086648 143.43856534 195.41086648 143.43856534 194.93359375 146.09765625 C195.26359375 145.76765625 195.59359375 145.43765625 195.93359375 145.09765625 C198.37109375 144.91015625 198.37109375 144.91015625 200.93359375 145.09765625 C201.59359375 145.75765625 202.25359375 146.41765625 202.93359375 147.09765625 C202.84076472 150.53233029 202.07695693 151.93321025 199.80859375 154.53515625 C197.04354002 156.99966066 194.24525237 159.41044187 191.38671875 161.765625 C189.80580192 163.05562535 189.80580192 163.05562535 188.93359375 165.09765625 C189.88234375 165.38640625 190.83109375 165.67515625 191.80859375 165.97265625 C194.93359375 167.09765625 194.93359375 167.09765625 196.93359375 169.09765625 C196.59328125 170.48984375 196.59328125 170.48984375 196.24609375 171.91015625 C196.14296875 172.96203125 196.03984375 174.01390625 195.93359375 175.09765625 C198.24632817 177.99485035 198.24632817 177.99485035 200.93359375 180.09765625 C199.05859375 184.97265625 199.05859375 184.97265625 197.93359375 186.09765625 C195.27896254 186.55225483 192.61170237 186.80008863 189.93359375 187.09765625 C190.42859375 187.55140625 190.92359375 188.00515625 191.43359375 188.47265625 C192.93359375 190.09765625 192.93359375 190.09765625 192.93359375 192.09765625 C193.52527344 192.27941406 194.11695313 192.46117187 194.7265625 192.6484375 C203.92540614 195.57466019 203.92540614 195.57466019 206.93359375 198.09765625 C207.24609375 200.78515625 207.24609375 200.78515625 206.93359375 203.09765625 C201.81033846 205.55254941 197.59463964 206.60107328 191.93359375 207.09765625 C193.15371168 212.75456663 194.66546884 215.03773255 198.93359375 219.09765625 C202.99692671 224.70225343 202.61778693 231.44232255 201.93359375 238.09765625 C201.27359375 239.08765625 200.61359375 240.07765625 199.93359375 241.09765625 C195.05859375 240.22265625 195.05859375 240.22265625 193.93359375 239.09765625 C193.66391102 237.3505812 193.41784214 235.59983423 193.18359375 233.84765625 C192.30861919 228.81981734 191.22735635 226.16462953 186.93359375 223.09765625 C185.61192558 222.7207184 184.27902599 222.37819319 182.93359375 222.09765625 C183.79984375 223.38349609 183.79984375 223.38349609 184.68359375 224.6953125 C185.43442712 225.84971881 186.18438073 227.00469766 186.93359375 228.16015625 C187.31515625 228.72154297 187.69671875 229.28292969 188.08984375 229.86132812 C190.79009052 234.0804637 191.51722993 237.13066921 190.93359375 242.09765625 C190.27359375 242.75765625 189.61359375 243.41765625 188.93359375 244.09765625 C186.43359375 243.91015625 186.43359375 243.91015625 183.93359375 243.09765625 C183.27359375 242.10765625 182.61359375 241.11765625 181.93359375 240.09765625 C181.20608587 241.50457232 180.50219022 242.92371647 179.80859375 244.34765625 C179.41414063 245.1365625 179.0196875 245.92546875 178.61328125 246.73828125 C177.69837521 249.07073091 177.69837521 249.07073091 178.65625 251.23046875 C180.44106235 253.8394605 182.67474787 255.8967295 184.93359375 258.09765625 C186.5408501 261.31216894 185.9910756 264.53378161 185.93359375 268.09765625 C184.28359375 268.42765625 182.63359375 268.75765625 180.93359375 269.09765625 C176.05859375 263.34765625 176.05859375 263.34765625 174.93359375 261.09765625 C172.00058706 260.06591275 169.27146539 259.98974637 166.18359375 260.03515625 C164.98476563 260.04869141 164.98476563 260.04869141 163.76171875 260.0625 C163.1584375 260.07410156 162.55515625 260.08570313 161.93359375 260.09765625 C161.95679688 261.30164063 161.98 262.505625 162.00390625 263.74609375 C162.02266238 265.3216084 162.04086274 266.89712973 162.05859375 268.47265625 C162.07535156 269.26671875 162.09210938 270.06078125 162.109375 270.87890625 C162.12694848 272.9525764 162.03694543 275.02648866 161.93359375 277.09765625 C161.27359375 277.75765625 160.61359375 278.41765625 159.93359375 279.09765625 C160.42859375 279.48953125 160.92359375 279.88140625 161.43359375 280.28515625 C162.93359375 282.09765625 162.93359375 282.09765625 163.18359375 284.72265625 C162.93359375 287.09765625 162.93359375 287.09765625 161.93359375 288.09765625 C158.6028215 287.71333638 155.49494983 287.28477494 152.30859375 286.22265625 C149.69993604 285.81701572 149.69993604 285.81701572 147.43359375 288.16015625 C145.7251601 290.16756579 144.0414259 292.18454454 142.37109375 294.22265625 C140.30393842 296.66083946 138.49801109 298.26515506 135.93359375 300.09765625 C136.77664063 300.4121875 137.6196875 300.72671875 138.48828125 301.05078125 C139.58398438 301.47875 140.6796875 301.90671875 141.80859375 302.34765625 C142.89914062 302.7653125 143.9896875 303.18296875 145.11328125 303.61328125 C148.08778117 305.17880752 148.8798162 305.97634046 149.93359375 309.09765625 C148.765625 310.609375 148.765625 310.609375 146.93359375 312.09765625 C141.16031965 312.43299556 135.27561104 311.26333894 129.93359375 309.09765625 C131.15654337 313.99197401 131.15654337 313.99197401 133.49609375 318.41015625 C135.63281826 322.40490207 135.90174663 326.59925113 135.93359375 331.09765625 C135.60359375 331.75765625 135.27359375 332.41765625 134.93359375 333.09765625 C132.95359375 333.09765625 130.97359375 333.09765625 128.93359375 333.09765625 C128.66095703 332.06705078 128.66095703 332.06705078 128.3828125 331.015625 C128.13144531 330.11457031 127.88007813 329.21351563 127.62109375 328.28515625 C127.37746094 327.39183594 127.13382812 326.49851562 126.8828125 325.578125 C126.13433588 323.08033622 126.13433588 323.08033622 124.43359375 321.69335938 C122.6431189 319.7886485 122.38812183 318.64300077 121.984375 316.0859375 C121.85869141 315.32861328 121.73300781 314.57128906 121.60351562 313.79101562 C121.48556641 313.00533203 121.36761719 312.21964844 121.24609375 311.41015625 C121.11654297 310.61287109 120.98699219 309.81558594 120.85351562 308.99414062 C120.53601979 307.03037011 120.2333605 305.06421114 119.93359375 303.09765625 C119.45003418 303.56139648 118.96647461 304.02513672 118.46826172 304.50292969 C116.25280251 306.62252513 114.03078097 308.73511643 111.80859375 310.84765625 C111.04804688 311.57726562 110.2875 312.306875 109.50390625 313.05859375 C103.4026101 318.84430562 96.95293715 323.18934541 89.68359375 327.34765625 C88.74773437 327.89292969 88.74773437 327.89292969 87.79296875 328.44921875 C83.17313792 331.09765625 83.17313792 331.09765625 80.93359375 331.09765625 C80.93359375 341.65765625 80.93359375 352.21765625 80.93359375 363.09765625 C85.29578125 362.66453125 85.29578125 362.66453125 89.74609375 362.22265625 C114.73694104 360.57820568 141.88091224 369.99040268 162.93359375 383.09765625 C164.0834375 383.73832031 165.23328125 384.37898438 166.41796875 385.0390625 C169.9404652 387.0402053 173.1760152 389.3624332 176.37109375 391.84765625 C176.933125 392.28231201 177.49515625 392.71696777 178.07421875 393.16479492 C182.72051103 396.81573924 186.87816176 400.80209999 190.93359375 405.09765625 C191.73152344 405.88527344 192.52945312 406.67289062 193.3515625 407.484375 C223.24666698 437.74129617 227.93359375 470.07167199 227.93359375 512.09765625 C99.89359375 512.09765625 -28.14640625 512.09765625 -160.06640625 512.09765625 C-160.06640625 473.27749903 -157.53986084 447.31584638 -134.06640625 417.09765625 C-133.33292969 416.14761719 -132.59945312 415.19757813 -131.84375 414.21875 C-127.33769282 408.53787174 -122.67801883 403.67309971 -117.06640625 399.09765625 C-115.98208323 398.14044286 -114.89874099 397.18211724 -113.81640625 396.22265625 C-105.48127089 389.1377912 -96.88015529 382.9545335 -87.06640625 378.09765625 C-85.84630859 377.47117187 -85.84630859 377.47117187 -84.6015625 376.83203125 C-62.27658834 365.96193597 -37.67352668 360.89150062 -13.06640625 363.09765625 C-13.06640625 352.53765625 -13.06640625 341.97765625 -13.06640625 331.09765625 C-15.04640625 330.43765625 -17.02640625 329.77765625 -19.06640625 329.09765625 C-27.07965841 324.98274298 -34.73356318 319.65051136 -41.00390625 313.16015625 C-41.68453125 312.47953125 -42.36515625 311.79890625 -43.06640625 311.09765625 C-43.72640625 311.09765625 -44.38640625 311.09765625 -45.06640625 311.09765625 C-45.43765625 312.67546875 -45.43765625 312.67546875 -45.81640625 314.28515625 C-47.49872487 318.27558351 -49.9996641 319.39117426 -53.87890625 321.09765625 C-58.42005007 322.93943828 -61.28892012 323.24025383 -66.06640625 322.09765625 C-67.38640625 324.40765625 -68.70640625 326.71765625 -70.06640625 329.09765625 C-72.37640625 328.76765625 -74.68640625 328.43765625 -77.06640625 328.09765625 C-77.47719031 324.74291975 -77.70078659 322.14641297 -75.90625 319.1796875 C-72.98820514 315.67952627 -70.09416784 313.2841554 -66.06640625 311.09765625 C-65.73640625 310.43765625 -65.40640625 309.77765625 -65.06640625 309.09765625 C-65.72640625 309.09765625 -66.38640625 309.09765625 -67.06640625 309.09765625 C-67.83984375 307.98390625 -67.83984375 307.98390625 -68.62890625 306.84765625 C-71.9200535 303.13456704 -75.51251465 301.87160053 -80.06640625 300.09765625 C-87.74329618 297.04752916 -87.74329618 297.04752916 -90.06640625 294.09765625 C-90.67887923 291.05184467 -90.59599243 288.15558933 -90.06640625 285.09765625 C-88.19140625 283.03515625 -88.19140625 283.03515625 -86.06640625 282.09765625 C-85.40640625 282.09765625 -84.74640625 282.09765625 -84.06640625 282.09765625 C-86.46945207 279.62595198 -88.77091892 277.31188457 -91.56640625 275.28515625 C-93.94620192 273.20283503 -95.01512264 271.66316376 -96.56640625 268.97265625 C-98.25313749 266.09182639 -98.83898274 265.21894879 -101.87890625 263.59765625 C-102.60078125 263.43265625 -103.32265625 263.26765625 -104.06640625 263.09765625 C-106.8287725 265.16943094 -108.95450238 266.9372607 -110.94140625 269.78515625 C-113.06640625 272.09765625 -113.06640625 272.09765625 -116.75390625 272.97265625 C-118.39359375 273.03453125 -118.39359375 273.03453125 -120.06640625 273.09765625 C-120.39640625 272.76765625 -120.72640625 272.43765625 -121.06640625 272.09765625 C-120.81521242 265.94340736 -118.5705123 262.07581429 -115.06640625 257.09765625 C-115.89785156 257.08347656 -116.72929688 257.06929688 -117.5859375 257.0546875 C-118.67261719 257.00699219 -119.75929687 256.95929688 -120.87890625 256.91015625 C-122.49732422 256.85794922 -122.49732422 256.85794922 -124.1484375 256.8046875 C-127.06640625 256.09765625 -127.06640625 256.09765625 -128.953125 253.859375 C-130.06640625 251.09765625 -130.06640625 251.09765625 -130.06640625 246.09765625 C-124.78640625 246.09765625 -119.50640625 246.09765625 -114.06640625 246.09765625 C-115.03578125 244.98390625 -116.00515625 243.87015625 -117.00390625 242.72265625 C-121.16092164 237.9465109 -121.26545222 235.36760424 -121.06640625 229.09765625 C-120.06640625 228.09765625 -120.06640625 228.09765625 -117.31640625 227.72265625 C-113.07404793 228.21215913 -111.77080274 229.91601332 -109.06640625 233.09765625 C-107.08640625 231.11765625 -107.08640625 231.11765625 -105.06640625 229.09765625 C-107.17025323 228.28432882 -109.27449482 227.47202208 -111.37890625 226.66015625 C-112.55066406 226.20769531 -113.72242188 225.75523437 -114.9296875 225.2890625 C-119.57827351 223.49291157 -119.57827351 223.49291157 -124.50390625 223.34765625 C-130.55519967 223.43713933 -135.72739784 220.69238443 -141.06640625 218.09765625 C-142.10667969 217.59685547 -142.10667969 217.59685547 -143.16796875 217.0859375 C-144.81640625 216.16015625 -144.81640625 216.16015625 -147.06640625 214.09765625 C-147.62890625 210.97265625 -147.62890625 210.97265625 -147.06640625 208.09765625 C-144.06640625 206.09765625 -144.06640625 206.09765625 -140.87890625 206.16015625 C-136.83442568 207.15470065 -134.39466457 208.65692888 -131 210.953125 C-128.43069754 212.47394444 -126.01939988 212.87618173 -123.06640625 213.09765625 C-122.40640625 211.77765625 -121.74640625 210.45765625 -121.06640625 209.09765625 C-121.80890625 208.39640625 -122.55140625 207.69515625 -123.31640625 206.97265625 C-125.99765747 204.16952998 -127.92119032 201.31548014 -130.06640625 198.09765625 C-130.97390625 197.25203125 -131.88140625 196.40640625 -132.81640625 195.53515625 C-135.06640625 193.09765625 -135.06640625 193.09765625 -135.44140625 190.34765625 C-135.06640625 188.09765625 -135.06640625 188.09765625 -134.06640625 187.09765625 C-129.13401463 186.85103667 -125.56778451 186.84696712 -121.06640625 189.09765625 C-118.48873456 185.47050395 -116.30632065 182.32121969 -115.44140625 177.91015625 C-116.29703558 174.05982426 -118.19277495 172.78387681 -121.06640625 170.09765625 C-122.66451438 167.76841365 -124.16128564 165.39682611 -125.63671875 162.98828125 C-127.00951693 160.80220067 -127.00951693 160.80220067 -130.06640625 160.09765625 C-133.48212478 159.59734419 -133.48212478 159.59734419 -137.06640625 160.09765625 C-139.77458353 162.30567893 -139.77458353 162.30567893 -142.06640625 165.09765625 C-146.29609813 169.01012124 -146.29609813 169.01012124 -149.81640625 169.41015625 C-152.06640625 169.09765625 -152.06640625 169.09765625 -153.06640625 168.09765625 C-153.53258022 164.7678422 -153.6970952 162.21707096 -152.0078125 159.21875 C-147.96129456 154.14141177 -143.22549099 150.70664037 -136.71875 149.75390625 C-130.14872958 149.50401641 -124.29949698 151.19718576 -118.06640625 153.09765625 C-117.73640625 153.09765625 -117.40640625 153.09765625 -117.06640625 153.09765625 C-120.20450608 149.65038402 -123.70400055 147.31347701 -127.69140625 144.97265625 C-133.82654139 141.33752111 -133.82654139 141.33752111 -136.06640625 139.09765625 C-135.53069196 135.56194196 -135.53069196 135.56194196 -134.06640625 134.09765625 C-126.65464154 134.8035386 -126.65464154 134.8035386 -124.06640625 136.09765625 C-124.39640625 135.43765625 -124.72640625 134.77765625 -125.06640625 134.09765625 C-125.25390625 131.09765625 -125.25390625 131.09765625 -125.06640625 128.09765625 C-123.06640625 126.09765625 -123.06640625 126.09765625 -120.44140625 125.97265625 C-119.65765625 126.01390625 -118.87390625 126.05515625 -118.06640625 126.09765625 C-120.91302093 120.35257346 -120.91302093 120.35257346 -126.00390625 116.84765625 C-129.94697035 117.16953903 -131.86505415 118.84989839 -135.06640625 121.09765625 C-137.81640625 121.47265625 -137.81640625 121.47265625 -140.06640625 121.09765625 C-142.06640625 119.09765625 -142.06640625 119.09765625 -142.50390625 116.22265625 C-142.06640625 113.09765625 -142.06640625 113.09765625 -140.00390625 110.84765625 C-133.89901085 107.21069729 -128.02865594 106.81893432 -121.12890625 106.97265625 C-120.34966797 106.98167969 -119.57042969 106.99070312 -118.76757812 107 C-116.86705178 107.02331934 -114.96668617 107.05918039 -113.06640625 107.09765625 C-111.99162223 103.02243351 -111.16698379 99.27153858 -112.06640625 95.09765625 C-113.16947017 93.32723866 -114.344211 91.60053113 -115.56640625 89.91015625 C-119.32187086 84.47461537 -119.77765521 80.35943514 -119.60546875 73.84765625 C-119.02061988 70.86407941 -118.52370896 69.83502282 -116.06640625 68.09765625 C-113.62890625 67.84765625 -113.62890625 67.84765625 -111.06640625 69.09765625 C-109.79792103 71.29578474 -108.86771147 73.50190559 -107.9609375 75.87109375 C-107.06422222 78.32250774 -107.06422222 78.32250774 -105.06640625 81.09765625 C-104.68582539 73.1054582 -106.1467316 67.41692422 -109.37890625 60.14453125 C-112.04655196 54.11201425 -113.70251878 49.71322655 -113.06640625 43.09765625 C-110.42640625 43.09765625 -107.78640625 43.09765625 -105.06640625 43.09765625 C-104.90527344 43.68933594 -104.74414062 44.28101563 -104.578125 44.890625 C-103.19624285 48.90528735 -102.10993987 51.42748271 -98.45703125 53.7734375 C-94.7199668 55.44918465 -90.94876934 56.80353522 -87.06640625 58.09765625 C-86.79054688 57.38222656 -86.5146875 56.66679688 -86.23046875 55.9296875 C-85.08392103 53.1402677 -83.8041351 50.47475267 -82.44140625 47.78515625 C-81.99539062 46.90214844 -81.549375 46.01914062 -81.08984375 45.109375 C-80.75210938 44.44550781 -80.414375 43.78164063 -80.06640625 43.09765625 C-79.40640625 43.09765625 -78.74640625 43.09765625 -78.06640625 43.09765625 C-77.79828125 42.47890625 -77.53015625 41.86015625 -77.25390625 41.22265625 C-76.06640625 39.09765625 -76.06640625 39.09765625 -73.06640625 37.09765625 C-70.87890625 37.47265625 -70.87890625 37.47265625 -69.06640625 38.09765625 C-67.59795204 43.57098557 -68.62601899 46.21688173 -71.06640625 51.09765625 C-65.49434396 47.69250707 -64.0829132 43.00072688 -62.06640625 37.09765625 C-60.74640625 37.09765625 -59.42640625 37.09765625 -58.06640625 37.09765625 C-58.21078125 35.91429687 -58.35515625 34.7309375 -58.50390625 33.51171875 C-61.26371171 10.29890667 -61.26371171 10.29890667 -58.06640625 5.09765625 C-55.33393277 3.73141951 -53.08441723 3.96923025 -50.06640625 4.09765625 C-48.32996545 5.83409705 -48.89935307 8.09940735 -48.8269043 10.41943359 C-48.52894573 20.85179001 -48.52894573 20.85179001 -44.06640625 30.09765625 C-42.01732808 31.33418953 -42.01732808 31.33418953 -40.06640625 32.09765625 C-38.91659251 30.32940483 -37.77168703 28.55796104 -36.62890625 26.78515625 C-35.99082031 25.79902344 -35.35273438 24.81289063 -34.6953125 23.796875 C-31.76692522 18.94431958 -32.04193749 15.1858464 -32.2265625 9.69140625 C-32.06640625 7.09765625 -32.06640625 7.09765625 -30.06640625 4.09765625 C-27.69140625 4.28515625 -27.69140625 4.28515625 -25.06640625 5.09765625 C-23.02411037 8.90626207 -22.84757653 12.14090387 -22.94140625 16.41015625 C-22.95945313 17.47878906 -22.9775 18.54742188 -22.99609375 19.6484375 C-23.01929688 20.45667969 -23.0425 21.26492187 -23.06640625 22.09765625 C-22.59332031 21.73671875 -22.12023437 21.37578125 -21.6328125 21.00390625 C-16.32361122 17.27815096 -12.49315672 16.42820308 -6.06640625 17.09765625 C-6.12828125 15.94265625 -6.19015625 14.78765625 -6.25390625 13.59765625 C-6.2707626 8.86944998 -4.95671869 5.40756862 -3.06640625 1.09765625 C-2.06640625 0.09765625 -2.06640625 0.09765625 0 0 Z M-115.06640625 156.09765625 C-114.06640625 158.09765625 -114.06640625 158.09765625 -114.06640625 158.09765625 Z " fill="#FEDAB3" transform="translate(222.06640625,-0.09765625)"/>
<path d="M0 0 C-0.15339844 0.96679688 -0.30679688 1.93359375 -0.46484375 2.9296875 C-1.60523102 12.15312368 -1.60523102 12.15312368 1.9375 20.5625 C5.4868917 24.79796741 9.31555527 28.09298643 14 31 C15.18335938 31.76957031 15.18335938 31.76957031 16.390625 32.5546875 C24.18892677 37.24767749 32.19042922 39.16760928 41 41 C42.0209375 41.226875 43.041875 41.45375 44.09375 41.6875 C66.88388836 46.19543946 91.43304204 41.4949456 111 29 C115.14724619 26.00180734 119.15774867 22.87654764 121 18 C121.50053707 11.92744651 121.06400667 5.98503751 120 0 C127.21128347 -0.36056417 133.73311248 0.96997979 140.75 2.5625 C141.94069092 2.8320752 143.13138184 3.10165039 144.3581543 3.37939453 C160.52074561 7.16053629 174.90037857 12.22167344 189 21 C190.14984375 21.64066406 191.2996875 22.28132813 192.484375 22.94140625 C196.00687145 24.94254905 199.24242145 27.26477695 202.4375 29.75 C202.99953125 30.18465576 203.5615625 30.61931152 204.140625 31.06713867 C208.78691728 34.71808299 212.94456801 38.70444374 217 43 C217.79792969 43.78761719 218.59585937 44.57523437 219.41796875 45.38671875 C249.31307323 75.64363992 254 107.97401574 254 150 C125.96 150 -2.08 150 -134 150 C-134 111.17984278 -131.47345459 85.21819013 -108 55 C-107.26652344 54.04996094 -106.53304687 53.09992188 -105.77734375 52.12109375 C-101.27128657 46.44021549 -96.61161258 41.57544346 -91 37 C-89.91567698 36.04278661 -88.83233474 35.08446099 -87.75 34.125 C-79.41486464 27.04013495 -70.81374904 20.85687725 -61 16 C-60.18660156 15.58234375 -59.37320313 15.1646875 -58.53515625 14.734375 C-46.00576539 8.63377791 -32.35980868 5.13648012 -18.8125 2.125 C-17.85698242 1.90972656 -16.90146484 1.69445312 -15.91699219 1.47265625 C-10.48998005 0.31805416 -5.54703285 -0.22162058 0 0 Z " fill="#374957" transform="translate(196,362)"/>
<path d="M0 0 C1.23556641 0.01740234 1.23556641 0.01740234 2.49609375 0.03515625 C3.32238281 0.04417969 4.14867187 0.05320313 5 0.0625 C5.63808594 0.07410156 6.27617187 0.08570313 6.93359375 0.09765625 C6.4745855 4.87134207 5.75695045 7.33318065 2.93359375 11.09765625 C2.20878291 14.75040094 2.20878291 14.75040094 1.93359375 18.09765625 C5.62808759 14.99972374 6.38494083 11.16344748 7.7734375 6.69140625 C9.08220663 3.76540388 10.17836904 2.68111873 12.93359375 1.09765625 C15.62109375 0.84765625 15.62109375 0.84765625 17.93359375 1.09765625 C18.93359375 2.09765625 18.93359375 2.09765625 19.05859375 5.41015625 C18.96102671 8.28838388 18.68859392 10.38325088 17.93359375 13.09765625 C23.02275212 16.05288164 23.02275212 16.05288164 28.68359375 17.34765625 C32.30833104 15.33391331 33.4117027 11.8301153 34.93359375 8.09765625 C36.58359375 8.09765625 38.23359375 8.09765625 39.93359375 8.09765625 C40.26359375 9.74765625 40.59359375 11.39765625 40.93359375 13.09765625 C41.71734375 13.05640625 42.50109375 13.01515625 43.30859375 12.97265625 C45.93359375 13.09765625 45.93359375 13.09765625 47.93359375 15.09765625 C48.64070053 16.74757207 49.31303364 18.41327881 49.93359375 20.09765625 C59.62092601 16.60865731 65.9012284 12.7457532 72.453125 4.76953125 C73.93359375 3.09765625 73.93359375 3.09765625 75.93359375 2.09765625 C78.99609375 1.97265625 78.99609375 1.97265625 81.93359375 2.09765625 C82.93359375 3.09765625 82.93359375 3.09765625 83.30859375 5.91015625 C83.28823408 10.81683604 81.0502709 14.95073543 79.02734375 19.328125 C77.6887165 22.22144002 77.6887165 22.22144002 77.93359375 26.09765625 C78.53171875 24.92203125 79.12984375 23.74640625 79.74609375 22.53515625 C80.30296875 21.44847656 80.30296875 21.44847656 80.87109375 20.33984375 C81.8378751 18.29965076 82.53640506 16.29809341 83.24609375 14.16015625 C84.93359375 11.09765625 84.93359375 11.09765625 88.49609375 10.03515625 C91.93359375 10.09765625 91.93359375 10.09765625 93.93359375 12.09765625 C94.1640625 14.33984375 94.1640625 14.33984375 94.12109375 16.97265625 C94.11142578 18.26816406 94.11142578 18.26816406 94.1015625 19.58984375 C93.94753042 21.88957851 93.57521151 23.89049114 92.93359375 26.09765625 C93.49046875 25.87078125 94.04734375 25.64390625 94.62109375 25.41015625 C97.84364794 24.97467595 99.27062851 26.37975662 101.93359375 28.09765625 C101.959375 27.26621094 101.98515625 26.43476563 102.01171875 25.578125 C102.0684375 24.49144531 102.12515625 23.40476562 102.18359375 22.28515625 C102.23 21.20621094 102.27640625 20.12726562 102.32421875 19.015625 C102.93359375 16.09765625 102.93359375 16.09765625 104.75390625 14.23046875 C107.90769952 12.59140056 110.44210081 12.77436987 113.93359375 13.09765625 C115.93359375 15.09765625 115.93359375 15.09765625 116.05859375 18.22265625 C116.01734375 19.17140625 115.97609375 20.12015625 115.93359375 21.09765625 C113.95359375 21.59265625 113.95359375 21.59265625 111.93359375 22.09765625 C111.82107642 28.17359187 112.24099017 34.06211077 112.93359375 40.09765625 C116.18922445 37.92723578 116.59823769 37.0838074 117.99609375 33.59765625 C119.12273131 30.81047257 119.7858583 29.2453917 121.93359375 27.09765625 C124.7181888 26.74065689 126.27186158 26.61511047 128.578125 28.296875 C130.40026945 30.71764904 130.26920084 32.21784725 130.18359375 35.22265625 C130.1578125 36.19074219 130.13203125 37.15882812 130.10546875 38.15625 C129.87111945 42.16681863 129.45600047 46.11430502 128.93359375 50.09765625 C130.04734375 49.32421875 130.04734375 49.32421875 131.18359375 48.53515625 C133.93359375 47.09765625 133.93359375 47.09765625 136.24609375 47.41015625 C137.08140625 47.75046875 137.08140625 47.75046875 137.93359375 48.09765625 C138.32546875 47.43765625 138.71734375 46.77765625 139.12109375 46.09765625 C140.93359375 44.09765625 140.93359375 44.09765625 143.62109375 43.84765625 C144.38421875 43.93015625 145.14734375 44.01265625 145.93359375 44.09765625 C149.87063277 50.00321478 147.79593264 58.44532767 146.93359375 65.09765625 C148.91359375 64.76765625 150.89359375 64.43765625 152.93359375 64.09765625 C153.09794922 62.88529297 153.09794922 62.88529297 153.265625 61.6484375 C153.42417969 60.57980469 153.58273437 59.51117188 153.74609375 58.41015625 C153.97232422 56.82654297 153.97232422 56.82654297 154.203125 55.2109375 C154.96742998 51.95344514 155.9614312 49.78873519 157.93359375 47.09765625 C160.49609375 46.16015625 160.49609375 46.16015625 162.93359375 46.09765625 C164.93359375 48.09765625 164.93359375 48.09765625 164.9453125 51.1796875 C164.83832031 52.41074219 164.73132813 53.64179687 164.62109375 54.91015625 C164.47220703 56.74513672 164.47220703 56.74513672 164.3203125 58.6171875 C163.99980304 61.5017726 163.56423365 64.26786181 162.93359375 67.09765625 C163.71734375 67.18015625 164.50109375 67.26265625 165.30859375 67.34765625 C167.93359375 68.09765625 167.93359375 68.09765625 169.24609375 69.66015625 C171.32454627 77.02921517 169.3039583 84.75641759 167.93359375 92.09765625 C168.87460937 91.90300781 169.815625 91.70835938 170.78515625 91.5078125 C173.93359375 91.09765625 173.93359375 91.09765625 176.30859375 92.53515625 C177.11296875 93.30859375 177.11296875 93.30859375 177.93359375 94.09765625 C177.64961358 100.77119034 174.85553843 104.8084281 170.93359375 110.09765625 C172.25359375 110.42765625 173.57359375 110.75765625 174.93359375 111.09765625 C178.68475039 107.11205232 178.66912686 102.6696899 179.10546875 97.49804688 C179.40263887 94.62064006 179.63961229 92.51317194 181.33203125 90.12109375 C182.93359375 89.09765625 182.93359375 89.09765625 185.55859375 89.28515625 C187.93359375 90.09765625 187.93359375 90.09765625 188.93359375 92.09765625 C189.96987547 101.18732734 187.95695906 107.99344898 183.93359375 116.09765625 C184.73796875 116.24203125 185.54234375 116.38640625 186.37109375 116.53515625 C188.93359375 117.09765625 188.93359375 117.09765625 189.93359375 118.09765625 C189.78306622 125.92508785 186.37694032 132.18990288 182.93359375 139.09765625 C183.92359375 139.75765625 184.91359375 140.41765625 185.93359375 141.09765625 C186.05734375 139.86015625 186.18109375 138.62265625 186.30859375 137.34765625 C187.11658925 131.26075685 187.11658925 131.26075685 188.93359375 129.09765625 C192.05859375 128.34765625 192.05859375 128.34765625 194.93359375 128.09765625 C197.11585612 131.37104981 197.14381975 131.76367008 196.62109375 135.41015625 C196.45867187 136.59351563 196.45867187 136.59351563 196.29296875 137.80078125 C195.41086648 143.43856534 195.41086648 143.43856534 194.93359375 146.09765625 C195.26359375 145.76765625 195.59359375 145.43765625 195.93359375 145.09765625 C198.37109375 144.91015625 198.37109375 144.91015625 200.93359375 145.09765625 C201.59359375 145.75765625 202.25359375 146.41765625 202.93359375 147.09765625 C202.84076472 150.53233029 202.07695693 151.93321025 199.80859375 154.53515625 C197.04354002 156.99966066 194.24525237 159.41044187 191.38671875 161.765625 C189.80580192 163.05562535 189.80580192 163.05562535 188.93359375 165.09765625 C189.88234375 165.38640625 190.83109375 165.67515625 191.80859375 165.97265625 C194.93359375 167.09765625 194.93359375 167.09765625 196.93359375 169.09765625 C196.59328125 170.48984375 196.59328125 170.48984375 196.24609375 171.91015625 C196.14296875 172.96203125 196.03984375 174.01390625 195.93359375 175.09765625 C198.24632817 177.99485035 198.24632817 177.99485035 200.93359375 180.09765625 C199.05859375 184.97265625 199.05859375 184.97265625 197.93359375 186.09765625 C195.27896254 186.55225483 192.61170237 186.80008863 189.93359375 187.09765625 C190.42859375 187.55140625 190.92359375 188.00515625 191.43359375 188.47265625 C192.93359375 190.09765625 192.93359375 190.09765625 192.93359375 192.09765625 C193.52527344 192.27941406 194.11695313 192.46117187 194.7265625 192.6484375 C203.92540614 195.57466019 203.92540614 195.57466019 206.93359375 198.09765625 C207.24609375 200.78515625 207.24609375 200.78515625 206.93359375 203.09765625 C201.81033846 205.55254941 197.59463964 206.60107328 191.93359375 207.09765625 C193.15371168 212.75456663 194.66546884 215.03773255 198.93359375 219.09765625 C202.99692671 224.70225343 202.61778693 231.44232255 201.93359375 238.09765625 C201.27359375 239.08765625 200.61359375 240.07765625 199.93359375 241.09765625 C195.05859375 240.22265625 195.05859375 240.22265625 193.93359375 239.09765625 C193.66391102 237.3505812 193.41784214 235.59983423 193.18359375 233.84765625 C192.30861919 228.81981734 191.22735635 226.16462953 186.93359375 223.09765625 C185.61192558 222.7207184 184.27902599 222.37819319 182.93359375 222.09765625 C183.79984375 223.38349609 183.79984375 223.38349609 184.68359375 224.6953125 C185.43442712 225.84971881 186.18438073 227.00469766 186.93359375 228.16015625 C187.31515625 228.72154297 187.69671875 229.28292969 188.08984375 229.86132812 C190.79009052 234.0804637 191.51722993 237.13066921 190.93359375 242.09765625 C190.27359375 242.75765625 189.61359375 243.41765625 188.93359375 244.09765625 C186.43359375 243.91015625 186.43359375 243.91015625 183.93359375 243.09765625 C183.27359375 242.10765625 182.61359375 241.11765625 181.93359375 240.09765625 C181.20608587 241.50457232 180.50219022 242.92371647 179.80859375 244.34765625 C179.41414063 245.1365625 179.0196875 245.92546875 178.61328125 246.73828125 C177.69837521 249.07073091 177.69837521 249.07073091 178.65625 251.23046875 C180.44106235 253.8394605 182.67474787 255.8967295 184.93359375 258.09765625 C186.5408501 261.31216894 185.9910756 264.53378161 185.93359375 268.09765625 C184.28359375 268.42765625 182.63359375 268.75765625 180.93359375 269.09765625 C176.05859375 263.34765625 176.05859375 263.34765625 174.93359375 261.09765625 C172.00058706 260.06591275 169.27146539 259.98974637 166.18359375 260.03515625 C164.98476563 260.04869141 164.98476563 260.04869141 163.76171875 260.0625 C163.1584375 260.07410156 162.55515625 260.08570313 161.93359375 260.09765625 C161.95679688 261.30164063 161.98 262.505625 162.00390625 263.74609375 C162.02266238 265.3216084 162.04086274 266.89712973 162.05859375 268.47265625 C162.07535156 269.26671875 162.09210938 270.06078125 162.109375 270.87890625 C162.12694848 272.9525764 162.03694543 275.02648866 161.93359375 277.09765625 C161.27359375 277.75765625 160.61359375 278.41765625 159.93359375 279.09765625 C160.42859375 279.48953125 160.92359375 279.88140625 161.43359375 280.28515625 C162.93359375 282.09765625 162.93359375 282.09765625 163.18359375 284.72265625 C162.93359375 287.09765625 162.93359375 287.09765625 161.93359375 288.09765625 C158.6028215 287.71333638 155.49494983 287.28477494 152.30859375 286.22265625 C149.69993604 285.81701572 149.69993604 285.81701572 147.43359375 288.16015625 C145.7251601 290.16756579 144.0414259 292.18454454 142.37109375 294.22265625 C140.30393842 296.66083946 138.49801109 298.26515506 135.93359375 300.09765625 C136.77664063 300.4121875 137.6196875 300.72671875 138.48828125 301.05078125 C139.58398438 301.47875 140.6796875 301.90671875 141.80859375 302.34765625 C142.89914062 302.7653125 143.9896875 303.18296875 145.11328125 303.61328125 C148.08778117 305.17880752 148.8798162 305.97634046 149.93359375 309.09765625 C148.765625 310.609375 148.765625 310.609375 146.93359375 312.09765625 C141.16031965 312.43299556 135.27561104 311.26333894 129.93359375 309.09765625 C131.15654337 313.99197401 131.15654337 313.99197401 133.49609375 318.41015625 C135.63281826 322.40490207 135.90174663 326.59925113 135.93359375 331.09765625 C135.60359375 331.75765625 135.27359375 332.41765625 134.93359375 333.09765625 C132.95359375 333.09765625 130.97359375 333.09765625 128.93359375 333.09765625 C128.66095703 332.06705078 128.66095703 332.06705078 128.3828125 331.015625 C128.13144531 330.11457031 127.88007813 329.21351563 127.62109375 328.28515625 C127.37746094 327.39183594 127.13382812 326.49851562 126.8828125 325.578125 C126.13142498 323.07284161 126.13142498 323.07284161 124.3984375 321.66015625 C121.59407355 318.6688347 121.85522624 314.29119833 121.375 310.3671875 C121.0425412 307.24828797 121.0425412 307.24828797 120.2734375 304.921875 C119.62793001 302.68889725 119.48477243 301.39680699 119.93359375 299.09765625 C121.52173999 296.4470178 123.26336291 293.97670456 125.10742188 291.49902344 C134.38159447 278.91264635 139.91875754 263.83393854 141.265625 248.2578125 C141.93359375 245.09765625 141.93359375 245.09765625 143.82421875 243.6015625 C144.6028125 243.29089844 145.38140625 242.98023438 146.18359375 242.66015625 C151.29468989 240.21041112 153.55784073 237.1673435 155.93359375 232.09765625 C157.68085589 226.85586982 157.23858929 221.23721935 157.28369141 215.7487793 C157.30015382 214.28540028 157.32731422 212.82209838 157.36572266 211.35913086 C157.59780391 202.45629223 157.51441561 194.55464913 151.93359375 187.09765625 C148.67927896 183.96468569 145.36769103 182.03881038 140.93359375 181.09765625 C140.84384277 180.49518066 140.7540918 179.89270508 140.66162109 179.27197266 C137.52181407 158.66967725 133.03943933 130.53776438 115.80859375 116.34765625 C107.69283449 112.81906527 98.56273366 112.77917627 89.84765625 112.68359375 C88.15876785 112.65440857 88.15876785 112.65440857 86.4357605 112.62463379 C82.81011269 112.56461756 79.18445223 112.51801235 75.55859375 112.47265625 C73.03449876 112.43549401 70.51041018 112.39789417 67.98632812 112.35986328 C60.96889218 112.25794606 53.95133569 112.17513426 46.93359375 112.09765625 C45.42805902 112.07949996 43.92252501 112.06128273 42.41699219 112.04296875 C35.06500219 111.96355217 27.71798962 111.98629511 20.3661499 112.07159424 C17.43244707 112.10302545 14.49870932 112.12724413 11.56494141 112.15185547 C5.38647418 112.20595605 -0.79158342 112.27910229 -6.96972656 112.36212158 C-9.46983522 112.39385683 -11.97000567 112.42108133 -14.47021484 112.44354248 C-18.00652626 112.47705274 -21.54211678 112.5293476 -25.078125 112.5859375 C-26.13742722 112.59233749 -27.19672943 112.59873749 -28.28813171 112.60533142 C-37.78615496 112.79175883 -46.26362945 114.08229268 -53.06640625 121.09765625 C-64.43661694 137.08701503 -69.67285688 156.7844728 -71.87890625 176.03515625 C-72.31640625 178.875 -72.31640625 178.875 -73.06640625 181.09765625 C-76.37890625 183.09765625 -76.37890625 183.09765625 -80.06640625 184.09765625 C-84.86616261 187.26113203 -87.24483552 190.76954401 -88.62744141 196.37036133 C-89.44665087 201.46012155 -89.37070922 206.59720596 -89.41650391 211.74291992 C-89.43299846 213.09563479 -89.46020303 214.44826486 -89.49853516 215.80053711 C-89.74804915 224.67998079 -89.26217574 231.67170852 -84.06640625 239.09765625 C-81.51394641 241.65011609 -79.99303841 242.8748132 -76.5 243.71484375 C-74.06640625 245.09765625 -74.06640625 245.09765625 -73.1328125 248.44921875 C-72.94833513 249.87165416 -72.78151226 251.29644946 -72.62890625 252.72265625 C-69.68253346 273.40003667 -59.35645741 293.72500816 -44.06640625 308.09765625 C-46.17917697 316.29108418 -46.17917697 316.29108418 -49.12890625 318.97265625 C-61.42816896 323.68301218 -61.42816896 323.68301218 -66.06640625 322.09765625 C-67.38640625 324.40765625 -68.70640625 326.71765625 -70.06640625 329.09765625 C-72.37640625 328.76765625 -74.68640625 328.43765625 -77.06640625 328.09765625 C-77.47719031 324.74291975 -77.70078659 322.14641297 -75.90625 319.1796875 C-72.98820514 315.67952627 -70.09416784 313.2841554 -66.06640625 311.09765625 C-65.73640625 310.43765625 -65.40640625 309.77765625 -65.06640625 309.09765625 C-65.72640625 309.09765625 -66.38640625 309.09765625 -67.06640625 309.09765625 C-67.83984375 307.98390625 -67.83984375 307.98390625 -68.62890625 306.84765625 C-71.9200535 303.13456704 -75.51251465 301.87160053 -80.06640625 300.09765625 C-87.74329618 297.04752916 -87.74329618 297.04752916 -90.06640625 294.09765625 C-90.67887923 291.05184467 -90.59599243 288.15558933 -90.06640625 285.09765625 C-88.19140625 283.03515625 -88.19140625 283.03515625 -86.06640625 282.09765625 C-85.40640625 282.09765625 -84.74640625 282.09765625 -84.06640625 282.09765625 C-86.46945207 279.62595198 -88.77091892 277.31188457 -91.56640625 275.28515625 C-93.94620192 273.20283503 -95.01512264 271.66316376 -96.56640625 268.97265625 C-98.25313749 266.09182639 -98.83898274 265.21894879 -101.87890625 263.59765625 C-102.60078125 263.43265625 -103.32265625 263.26765625 -104.06640625 263.09765625 C-106.8287725 265.16943094 -108.95450238 266.9372607 -110.94140625 269.78515625 C-113.06640625 272.09765625 -113.06640625 272.09765625 -116.75390625 272.97265625 C-118.39359375 273.03453125 -118.39359375 273.03453125 -120.06640625 273.09765625 C-120.39640625 272.76765625 -120.72640625 272.43765625 -121.06640625 272.09765625 C-120.81521242 265.94340736 -118.5705123 262.07581429 -115.06640625 257.09765625 C-115.89785156 257.08347656 -116.72929688 257.06929688 -117.5859375 257.0546875 C-118.67261719 257.00699219 -119.75929687 256.95929688 -120.87890625 256.91015625 C-122.49732422 256.85794922 -122.49732422 256.85794922 -124.1484375 256.8046875 C-127.06640625 256.09765625 -127.06640625 256.09765625 -128.953125 253.859375 C-130.06640625 251.09765625 -130.06640625 251.09765625 -130.06640625 246.09765625 C-124.78640625 246.09765625 -119.50640625 246.09765625 -114.06640625 246.09765625 C-115.03578125 244.98390625 -116.00515625 243.87015625 -117.00390625 242.72265625 C-121.16092164 237.9465109 -121.26545222 235.36760424 -121.06640625 229.09765625 C-120.06640625 228.09765625 -120.06640625 228.09765625 -117.31640625 227.72265625 C-113.07404793 228.21215913 -111.77080274 229.91601332 -109.06640625 233.09765625 C-107.08640625 231.11765625 -107.08640625 231.11765625 -105.06640625 229.09765625 C-107.17025323 228.28432882 -109.27449482 227.47202208 -111.37890625 226.66015625 C-112.55066406 226.20769531 -113.72242188 225.75523437 -114.9296875 225.2890625 C-119.57827351 223.49291157 -119.57827351 223.49291157 -124.50390625 223.34765625 C-130.55519967 223.43713933 -135.72739784 220.69238443 -141.06640625 218.09765625 C-142.10667969 217.59685547 -142.10667969 217.59685547 -143.16796875 217.0859375 C-144.81640625 216.16015625 -144.81640625 216.16015625 -147.06640625 214.09765625 C-147.62890625 210.97265625 -147.62890625 210.97265625 -147.06640625 208.09765625 C-144.06640625 206.09765625 -144.06640625 206.09765625 -140.87890625 206.16015625 C-136.83442568 207.15470065 -134.39466457 208.65692888 -131 210.953125 C-128.43069754 212.47394444 -126.01939988 212.87618173 -123.06640625 213.09765625 C-122.07640625 211.11765625 -122.07640625 211.11765625 -121.06640625 209.09765625 C-121.80890625 208.39640625 -122.55140625 207.69515625 -123.31640625 206.97265625 C-125.99765747 204.16952998 -127.92119032 201.31548014 -130.06640625 198.09765625 C-130.97390625 197.25203125 -131.88140625 196.40640625 -132.81640625 195.53515625 C-135.06640625 193.09765625 -135.06640625 193.09765625 -135.44140625 190.34765625 C-135.06640625 188.09765625 -135.06640625 188.09765625 -134.06640625 187.09765625 C-129.13401463 186.85103667 -125.56778451 186.84696712 -121.06640625 189.09765625 C-118.48873456 185.47050395 -116.30632065 182.32121969 -115.44140625 177.91015625 C-116.29703558 174.05982426 -118.19277495 172.78387681 -121.06640625 170.09765625 C-122.66451438 167.76841365 -124.16128564 165.39682611 -125.63671875 162.98828125 C-127.00951693 160.80220067 -127.00951693 160.80220067 -130.06640625 160.09765625 C-133.48212478 159.59734419 -133.48212478 159.59734419 -137.06640625 160.09765625 C-139.77458353 162.30567893 -139.77458353 162.30567893 -142.06640625 165.09765625 C-146.29609813 169.01012124 -146.29609813 169.01012124 -149.81640625 169.41015625 C-152.06640625 169.09765625 -152.06640625 169.09765625 -153.06640625 168.09765625 C-153.53258022 164.7678422 -153.6970952 162.21707096 -152.0078125 159.21875 C-147.96129456 154.14141177 -143.22549099 150.70664037 -136.71875 149.75390625 C-130.14872958 149.50401641 -124.29949698 151.19718576 -118.06640625 153.09765625 C-117.73640625 153.09765625 -117.40640625 153.09765625 -117.06640625 153.09765625 C-120.20450608 149.65038402 -123.70400055 147.31347701 -127.69140625 144.97265625 C-133.82654139 141.33752111 -133.82654139 141.33752111 -136.06640625 139.09765625 C-135.53069196 135.56194196 -135.53069196 135.56194196 -134.06640625 134.09765625 C-126.65464154 134.8035386 -126.65464154 134.8035386 -124.06640625 136.09765625 C-124.56140625 135.10765625 -124.56140625 135.10765625 -125.06640625 134.09765625 C-125.25390625 131.09765625 -125.25390625 131.09765625 -125.06640625 128.09765625 C-123.06640625 126.09765625 -123.06640625 126.09765625 -120.44140625 125.97265625 C-119.65765625 126.01390625 -118.87390625 126.05515625 -118.06640625 126.09765625 C-120.91302093 120.35257346 -120.91302093 120.35257346 -126.00390625 116.84765625 C-129.94697035 117.16953903 -131.86505415 118.84989839 -135.06640625 121.09765625 C-137.81640625 121.47265625 -137.81640625 121.47265625 -140.06640625 121.09765625 C-142.06640625 119.09765625 -142.06640625 119.09765625 -142.50390625 116.22265625 C-142.06640625 113.09765625 -142.06640625 113.09765625 -140.00390625 110.84765625 C-133.89901085 107.21069729 -128.02865594 106.81893432 -121.12890625 106.97265625 C-120.34966797 106.98167969 -119.57042969 106.99070312 -118.76757812 107 C-116.86705178 107.02331934 -114.96668617 107.05918039 -113.06640625 107.09765625 C-111.99162223 103.02243351 -111.16698379 99.27153858 -112.06640625 95.09765625 C-113.16947017 93.32723866 -114.344211 91.60053113 -115.56640625 89.91015625 C-119.32187086 84.47461537 -119.77765521 80.35943514 -119.60546875 73.84765625 C-119.02061988 70.86407941 -118.52370896 69.83502282 -116.06640625 68.09765625 C-113.62890625 67.84765625 -113.62890625 67.84765625 -111.06640625 69.09765625 C-109.79792103 71.29578474 -108.86771147 73.50190559 -107.9609375 75.87109375 C-107.06422222 78.32250774 -107.06422222 78.32250774 -105.06640625 81.09765625 C-104.68582539 73.1054582 -106.1467316 67.41692422 -109.37890625 60.14453125 C-112.04655196 54.11201425 -113.70251878 49.71322655 -113.06640625 43.09765625 C-110.42640625 43.09765625 -107.78640625 43.09765625 -105.06640625 43.09765625 C-104.90527344 43.68933594 -104.74414062 44.28101563 -104.578125 44.890625 C-103.19624285 48.90528735 -102.10993987 51.42748271 -98.45703125 53.7734375 C-94.7199668 55.44918465 -90.94876934 56.80353522 -87.06640625 58.09765625 C-86.79054688 57.38222656 -86.5146875 56.66679688 -86.23046875 55.9296875 C-85.08392103 53.1402677 -83.8041351 50.47475267 -82.44140625 47.78515625 C-81.99539062 46.90214844 -81.549375 46.01914062 -81.08984375 45.109375 C-80.75210938 44.44550781 -80.414375 43.78164063 -80.06640625 43.09765625 C-79.40640625 43.09765625 -78.74640625 43.09765625 -78.06640625 43.09765625 C-77.79828125 42.47890625 -77.53015625 41.86015625 -77.25390625 41.22265625 C-76.06640625 39.09765625 -76.06640625 39.09765625 -73.06640625 37.09765625 C-70.87890625 37.47265625 -70.87890625 37.47265625 -69.06640625 38.09765625 C-67.59795204 43.57098557 -68.62601899 46.21688173 -71.06640625 51.09765625 C-65.49434396 47.69250707 -64.0829132 43.00072688 -62.06640625 37.09765625 C-60.74640625 37.09765625 -59.42640625 37.09765625 -58.06640625 37.09765625 C-58.21078125 35.91429687 -58.35515625 34.7309375 -58.50390625 33.51171875 C-61.26371171 10.29890667 -61.26371171 10.29890667 -58.06640625 5.09765625 C-55.33393277 3.73141951 -53.08441723 3.96923025 -50.06640625 4.09765625 C-48.32996545 5.83409705 -48.89935307 8.09940735 -48.8269043 10.41943359 C-48.52894573 20.85179001 -48.52894573 20.85179001 -44.06640625 30.09765625 C-42.01732808 31.33418953 -42.01732808 31.33418953 -40.06640625 32.09765625 C-38.91659251 30.32940483 -37.77168703 28.55796104 -36.62890625 26.78515625 C-35.99082031 25.79902344 -35.35273438 24.81289063 -34.6953125 23.796875 C-31.76692522 18.94431958 -32.04193749 15.1858464 -32.2265625 9.69140625 C-32.06640625 7.09765625 -32.06640625 7.09765625 -30.06640625 4.09765625 C-27.69140625 4.28515625 -27.69140625 4.28515625 -25.06640625 5.09765625 C-23.02411037 8.90626207 -22.84757653 12.14090387 -22.94140625 16.41015625 C-22.95945313 17.47878906 -22.9775 18.54742188 -22.99609375 19.6484375 C-23.01929688 20.45667969 -23.0425 21.26492187 -23.06640625 22.09765625 C-22.59332031 21.73671875 -22.12023437 21.37578125 -21.6328125 21.00390625 C-16.32361122 17.27815096 -12.49315672 16.42820308 -6.06640625 17.09765625 C-6.12828125 15.94265625 -6.19015625 14.78765625 -6.25390625 13.59765625 C-6.2707626 8.86944998 -4.95671869 5.40756862 -3.06640625 1.09765625 C-2.06640625 0.09765625 -2.06640625 0.09765625 0 0 Z M-115.06640625 156.09765625 C-114.06640625 158.09765625 -114.06640625 158.09765625 -114.06640625 158.09765625 Z " fill="#C63306" transform="translate(222.06640625,-0.09765625)"/>
<path d="M0 0 C7.21128347 -0.36056417 13.73311248 0.96997979 20.75 2.5625 C21.94069092 2.8320752 23.13138184 3.10165039 24.3581543 3.37939453 C40.52074561 7.16053629 54.90037857 12.22167344 69 21 C70.14984375 21.64066406 71.2996875 22.28132813 72.484375 22.94140625 C76.00687145 24.94254905 79.24242145 27.26477695 82.4375 29.75 C82.99953125 30.18465576 83.5615625 30.61931152 84.140625 31.06713867 C88.78691728 34.71808299 92.94456801 38.70444374 97 43 C97.79792969 43.78761719 98.59585938 44.57523437 99.41796875 45.38671875 C129.31307323 75.64363992 134 107.97401574 134 150 C86.81 150 39.62 150 -9 150 C-7.35 140.76 -5.7 131.52 -4 122 C-2.7501433 114.50085979 -1.52861672 107.02811799 -0.5 99.5 C-0.38269531 98.67242187 -0.26539063 97.84484375 -0.14453125 96.9921875 C0.26619829 93.99783665 0.63744674 91.00058841 1 88 C1.08538025 87.31933472 1.1707605 86.63866943 1.25872803 85.93737793 C3.01255289 71.68100463 3.24249676 57.60012259 3.125 43.25 C3.1149345 41.07682711 3.10581506 38.90364963 3.09765625 36.73046875 C3.07596146 31.48686236 3.04163529 26.2434844 3 21 C1.68 21.33 0.36 21.66 -1 22 C-0.67386719 21.44957031 -0.34773438 20.89914062 -0.01171875 20.33203125 C2.61166335 14.28508487 1.128631 6.34854938 0 0 Z " fill="#374957" transform="translate(316,362)"/>
<path d="M0 0 C3.43114167 1.14371389 3.68167467 1.71673874 5.5625 4.625 C9.21757437 9.68587221 13.72754106 12.75859836 19 16 C19.61359375 16.39058594 20.2271875 16.78117187 20.859375 17.18359375 C27.59568415 21.01375183 35.4986632 22.36079796 43 24 C44.02480469 24.22945313 45.04960937 24.45890625 46.10546875 24.6953125 C68.74032066 29.12862143 93.64943264 24.65662109 113 12 C116.77601498 9.12078858 120.41864773 6.11723119 124 3 C124.99 3.495 124.99 3.495 126 4 C126.76604942 49.1733448 126.76604942 49.1733448 124.125 71.375 C124.03786743 72.11431763 123.95073486 72.85363525 123.86096191 73.61535645 C123.03507209 80.46190236 122.07016069 87.23550275 120.45996094 93.94677734 C119.59658053 97.80082683 119.10930163 101.7158682 118.5625 105.625 C115.24573677 128.50852647 115.24573677 128.50852647 113 133 C79.34 133 45.68 133 11 133 C5.24876797 106.54433268 5.24876797 106.54433268 4.015625 97.421875 C3.8696991 96.392901 3.72377319 95.363927 3.57342529 94.30377197 C3.27395072 92.18110296 2.97842247 90.05787311 2.68701172 87.93408203 C2.24432364 84.70864187 1.78918826 81.48513722 1.33203125 78.26171875 C1.03835632 76.16936983 0.74536211 74.07692523 0.453125 71.984375 C0.3208551 71.04148621 0.18858521 70.09859741 0.05230713 69.12713623 C-1.31108575 59.16060795 -2.15568884 49.32011697 -2.16796875 39.2578125 C-2.17129715 38.28641327 -2.17462555 37.31501404 -2.17805481 36.31417847 C-2.18307386 34.28237374 -2.18546471 32.25056092 -2.18530273 30.21875 C-2.18750934 27.11184381 -2.2057726 24.00528206 -2.22460938 20.8984375 C-2.22754037 18.9140637 -2.22952713 16.92968824 -2.23046875 14.9453125 C-2.23765427 14.02130646 -2.24483978 13.09730042 -2.25224304 12.14529419 C-2.2362754 7.65569485 -2.13781147 4.07439224 0 0 Z " fill="#252D32" transform="translate(194,379)"/>
<path d="M0 0 C3.27944275 0.81986069 6.41381661 1.77114725 9.625 2.8125 C12.0801559 3.55640406 14.53570827 4.28792966 17 5 C17.65274902 5.19062012 18.30549805 5.38124023 18.97802734 5.57763672 C41.58094307 11.96506332 67.78278041 11.25534608 89.10961914 0.77832031 C91 0 91 0 94 0 C94 5.94 94 11.88 94 18 C98.29 18 102.58 18 107 18 C109.14649913 24.43949739 110.88258847 30.74564652 108.0078125 37.2421875 C99.51172814 49.57830999 83.09414786 55.94660498 69 59 C68.09121094 59.20496094 67.18242187 59.40992188 66.24609375 59.62109375 C43.11862666 64.18365529 17.8079112 59.81009301 -2.0390625 47.15234375 C-6.07364376 44.21955447 -9.07462845 41.01143763 -12 37 C-12.66 36.236875 -13.32 35.47375 -14 34.6875 C-15.96349058 29.41061906 -14.74846817 23.24540452 -13 18 C-8.71 18 -4.42 18 0 18 C0 12.06 0 6.12 0 0 Z " fill="#FDD9B3" transform="translate(209,345)"/>
<path d="M0 0 C3.74100473 0.74820095 6.78229599 1.58675017 10.3125 2.875 C35.54824114 11.21588429 64.27058014 10.8950145 88.96875 0.734375 C91 0 91 0 94 0 C94 4.62 94 9.24 94 14 C64.86672799 26.05514704 34.26824686 28.37625897 4.5625 16.1875 C2.3040625 15.1046875 2.3040625 15.1046875 0 14 C0 9.38 0 4.76 0 0 Z " fill="#E5C5A2" transform="translate(209,331)"/>
<path d="M0 0 C1.4540625 0.0309375 1.4540625 0.0309375 2.9375 0.0625 C3.370625 1.01125 3.80375 1.96 4.25 2.9375 C5.73052201 6.26291937 5.73052201 6.26291937 8.9375 8.0625 C11.10197184 8.37151649 11.10197184 8.37151649 13.51318359 8.3371582 C14.43779388 8.34669022 15.36240417 8.35622223 16.31503296 8.36604309 C17.31193146 8.36513168 18.30882996 8.36422028 19.3359375 8.36328125 C20.87660385 8.36970894 20.87660385 8.36970894 22.44839478 8.37626648 C24.62216454 8.38201184 26.79595353 8.38250853 28.96972656 8.37817383 C32.29265266 8.37501884 35.61468434 8.39845372 38.9375 8.42382812 C41.04947804 8.42610161 43.16145848 8.42680439 45.2734375 8.42578125 C46.26628754 8.434991 47.25913757 8.44420074 48.28207397 8.45368958 C55.1193205 8.43905 55.1193205 8.43905 60.9375 5.0625 C62.28439915 2.49150598 62.28439915 2.49150598 62.9375 0.0625 C64.5875 0.3925 66.2375 0.7225 67.9375 1.0625 C69.52476717 6.95209661 67.69594629 10.80905455 64.9375 16.0625 C62.76523053 19.20950577 60.42991673 22.16401538 57.9375 25.0625 C54.83565496 24.52007209 52.61578592 23.90479702 49.75 22.5 C43.41865981 19.66610319 36.55548428 20.93260025 29.9375 22.0625 C28.9475 21.7325 27.9575 21.4025 26.9375 21.0625 C20.49810015 20.53683471 15.57797104 20.62318839 9.9375 24.0625 C8.61289451 24.42898217 7.28013925 24.76888675 5.9375 25.0625 C0.30781992 19.22639832 -4.24004009 12.9450097 -4.375 4.5625 C-3.97487678 0.08111993 -3.97487678 0.08111993 0 0 Z " fill="#504338" transform="translate(224.0625,268.9375)"/>
<path d="M0 0 C8.86014944 6.20866768 8.86014944 6.20866768 11.63671875 9.84765625 C11.87109375 12.59375 11.87109375 12.59375 11.63671875 14.84765625 C10.59515625 14.59371094 9.55359375 14.33976562 8.48046875 14.078125 C4.64271086 13.15067815 0.79792318 12.25664209 -3.05126953 11.37792969 C-5.08341021 10.91184631 -7.11230385 10.43165294 -9.140625 9.94921875 C-21.75753352 7.22924487 -34.49961216 7.11417687 -47.36328125 6.84765625 C-46.03455933 2.86149049 -43.96868217 1.6570832 -40.36328125 -0.15234375 C-27.58547928 -5.65807313 -12.33107619 -7.27481901 0 0 Z " fill="#70604F" transform="translate(332.36328125,165.15234375)"/>
<path d="M0 0 C1.94921875 1.31640625 1.94921875 1.31640625 4.63671875 3.69140625 C4.63671875 4.35140625 4.63671875 5.01140625 4.63671875 5.69140625 C3.9089624 5.70075195 3.18120605 5.71009766 2.43139648 5.71972656 C-10.56950235 5.92785521 -23.40810644 6.32004568 -36.23828125 8.56640625 C-37.64315796 8.80858887 -37.64315796 8.80858887 -39.07641602 9.05566406 C-43.9798236 9.98483522 -47.94812269 11.26929732 -52.36328125 13.69140625 C-53.02328125 13.69140625 -53.68328125 13.69140625 -54.36328125 13.69140625 C-54.67578125 11.50390625 -54.67578125 11.50390625 -54.36328125 8.69140625 C-52.17578125 6.12890625 -52.17578125 6.12890625 -49.36328125 3.69140625 C-48.61175781 3.03785156 -47.86023438 2.38429687 -47.0859375 1.7109375 C-33.61006094 -8.28479877 -14.34520909 -7.94321495 0 0 Z " fill="#6D5E4D" transform="translate(224.36328125,166.30859375)"/>
<path d="M0 0 C2.86338543 0.71376304 2.86338543 0.71376304 4.9375 -0.5625 C12.07322388 -1.38533394 17.75317408 -0.21445108 23.9375 3.4375 C24.5975 4.0975 25.2575 4.7575 25.9375 5.4375 C14.66746688 12.57364802 6.6315421 15.92962068 -7.0625 14.4375 C-13.86707988 12.57123261 -19.60905248 10.0043094 -24.0625 4.4375 C-16.77964445 -1.49667859 -8.97152268 -1.429425 0 0 Z " fill="#FA536E" transform="translate(255.0625,289.5625)"/>
<path d="M0 0 C15.18 0 30.36 0 46 0 C44.90396364 5.48018181 44.12008759 6.52081492 40 10 C31.65644463 14.86707397 22.39498307 14.82298572 13 14 C7.44150891 12.19946727 3.00556121 9.09638639 0 4 C0 2.68 0 1.36 0 0 Z " fill="#D7B897" transform="translate(233,238)"/>
<path d="M0 0 C19.8 0 39.6 0 60 0 C58 6 58 6 56.03710938 7.84790039 C51.50829696 9.56586388 47.21237571 9.44789478 42.40625 9.43359375 C41.38196899 9.4388356 40.35768799 9.44407745 39.30236816 9.44947815 C37.14055283 9.4558908 34.97870256 9.45457118 32.81689453 9.44604492 C29.51141241 9.4375294 26.20765551 9.46631706 22.90234375 9.49804688 C20.79947968 9.49965889 18.69661256 9.49908136 16.59375 9.49609375 C15.60717407 9.50732773 14.62059814 9.51856171 13.60412598 9.53013611 C9.34280471 9.48689435 6.67722111 9.37546939 2.90039062 7.28149414 C1 5 1 5 0 0 Z " fill="#FDFDFD" transform="translate(227,269)"/>
<path d="M0 0 C3.57623788 1.9137306 5.69762236 4.09286708 7 8 C7.38304369 12.13687181 7.46657659 14.27600184 5.1875 17.8125 C2.06994053 20.93005947 0.59269354 21.95220213 -3.875 22.3125 C-8.65689232 22.18088828 -11.3388269 20.54660944 -14.8125 17.3125 C-16.56934427 13.89127695 -16.78220664 10.7048151 -16 7 C-12.12720361 0.33018399 -7.33177124 -1.11944829 0 0 Z " fill="#6B5C4B" transform="translate(210,194)"/>
<path d="M0 0 C4.05902667 1.5611641 7.06099411 3.01426566 9 7 C9.39393831 10.10226423 9.63549198 12.04025495 9 15 C6.4880944 18.20965715 3.90300769 20.69899744 0 22 C-4.65991428 22.49573556 -7.26305231 21.82796041 -11 19 C-13.61429492 16.47585319 -13.97469861 15.23192942 -14.375 11.5625 C-13.88327909 6.89115138 -12.46771284 4.52013115 -9.25 1.1875 C-5.98669531 -0.5347997 -3.64419529 -0.37698572 0 0 Z " fill="#6A5B4B" transform="translate(309,194)"/>
<path d="M0 0 C4.93093913 1.99827927 8.95722501 5.55918207 13.08203125 8.84375 C13.74203125 9.17375 14.40203125 9.50375 15.08203125 9.84375 C15.08203125 10.50375 15.08203125 11.16375 15.08203125 11.84375 C10.72818736 12.18138954 6.37391065 12.5130942 2.01953125 12.84375 C0.79041016 12.93914062 -0.43871094 13.03453125 -1.70507812 13.1328125 C-7.45629245 13.56686641 -13.14960056 13.98088803 -18.91796875 13.84375 C-18.63398272 10.66893187 -17.81862122 9.74774055 -15.4765625 7.484375 C-4.94428071 -0.58290467 -4.94428071 -0.58290467 0 0 Z " fill="#DEDFDF" transform="translate(375.91796875,453.15625)"/>
<path d="M0 0 C0.33 0.99 0.66 1.98 1 3 C0.45730469 3.45890625 -0.08539063 3.9178125 -0.64453125 4.390625 C-1.35996094 5.00421875 -2.07539063 5.6178125 -2.8125 6.25 C-3.52019531 6.85328125 -4.22789062 7.4565625 -4.95703125 8.078125 C-6.9342127 9.93811214 -8.51392197 11.73103544 -10 14 C-10 14.66 -10 15.32 -10 16 C-9.01 16 -8.02 16 -7 16 C-4.78831775 13.05763218 -4.78831775 13.05763218 -3 10 C-2.34 10.33 -1.68 10.66 -1 11 C-2.32 13.64 -3.64 16.28 -5 19 C-7.31 18.67 -9.62 18.34 -12 18 C-12.40698394 14.67629784 -12.63803843 12.06782821 -10.875 9.1171875 C-7.68975993 5.28494554 -4.26800191 2.54047733 0 0 Z " fill="#9C3119" transform="translate(157,310)"/>
<path d="M0 0 C3.40045103 1.13348368 3.87668187 1.8520486 5.875 4.6875 C7.756612 7.32646083 9.66456497 9.75757385 11.875 12.125 C14 15 14 15 14.625 17.875 C13.75642861 22.21785694 11.75565453 25.55349124 9 29 C8.01 29.66 7.02 30.32 6 31 C7.0063656 28.29055416 8.01615395 25.97576908 9.625 23.5625 C11.34895883 20.34966764 11.59968099 18.59808592 11 15 C8.81356892 12.56197123 8.81356892 12.56197123 6 10 C0 1.80796253 0 1.80796253 0 0 Z " fill="#A73316" transform="translate(95,160)"/>
<path d="M0 0 C1 3 1 3 0.0625 5.1875 C-0.288125 5.785625 -0.63875 6.38375 -1 7 C-1.66 7 -2.32 7 -3 7 C-3.11601563 7.72445313 -3.23203125 8.44890625 -3.3515625 9.1953125 C-4.01783246 12.07713077 -4.99918519 14.265121 -6.375 16.875 C-8.43362565 20.86097662 -10.28778394 24.8546348 -12 29 C-12.66 29 -13.32 29 -14 29 C-11.78077542 18.38853532 -5.95793419 8.93690128 0 0 Z " fill="#777B78" transform="translate(82,425)"/>
<path d="M0 0 C0.66 0 1.32 0 2 0 C0.125 5.75 0.125 5.75 -1 8 C-0.195625 8.144375 0.60875 8.28875 1.4375 8.4375 C4 9 4 9 5 10 C5.04063832 11.66617115 5.042721 13.33388095 5 15 C4.34 15 3.68 15 3 15 C2.67 13.68 2.34 12.36 2 11 C-1.12197478 12.3089572 -1.12197478 12.3089572 -3 15 C-3.66 15 -4.32 15 -5 15 C-5.78287497 8.89357521 -3.10825151 4.99540421 0 0 Z " fill="#9E3019" transform="translate(407,108)"/>
<path d="M0 0 C3.12826838 0.29100171 4.37427733 1.19380207 6.6875 3.25 C6.3575 3.91 6.0275 4.57 5.6875 5.25 C3.3775 4.26 1.0675 3.27 -1.3125 2.25 C-0.735 3.11882812 -0.1575 3.98765625 0.4375 4.8828125 C1.18821193 6.046416 1.93817247 7.21050451 2.6875 8.375 C3.25984375 9.22964844 3.25984375 9.22964844 3.84375 10.1015625 C6.31628616 13.98697647 7.13353429 16.66420991 6.6875 21.25 C6.0275 21.25 5.3675 21.25 4.6875 21.25 C4.419375 20.033125 4.15125 18.81625 3.875 17.5625 C3.00185043 14.01336686 1.68160785 11.33180304 -0.3125 8.25 C-0.3125 7.59 -0.3125 6.93 -0.3125 6.25 C-0.9725 6.25 -1.6325 6.25 -2.3125 6.25 C-2.69468767 4.59385343 -3.02645102 2.92542976 -3.3125 1.25 C-2.3125 0.25 -2.3125 0.25 0 0 Z " fill="#9C321A" transform="translate(406.3125,219.75)"/>
<path d="M0 0 C1.1446875 0.12375 1.1446875 0.12375 2.3125 0.25 C4.79139687 3.96834531 4.88667515 7.92679888 4.3125 12.25 C3.6525 13.57 2.9925 14.89 2.3125 16.25 C1.9825 11.63 1.6525 7.01 1.3125 2.25 C-0.0075 2.25 -1.3275 2.25 -2.6875 2.25 C-2.6875 3.57 -2.6875 4.89 -2.6875 6.25 C-5.6575 5.92 -8.6275 5.59 -11.6875 5.25 C-10.3675 4.59 -9.0475 3.93 -7.6875 3.25 C-7.0275 3.58 -6.3675 3.91 -5.6875 4.25 C-5.295625 3.59 -4.90375 2.93 -4.5 2.25 C-2.6875 0.25 -2.6875 0.25 0 0 Z " fill="#A23219" transform="translate(365.6875,43.75)"/>
<path d="M0 0 C-0.33 0.66 -0.66 1.32 -1 2 C-2.890625 2.37890625 -2.890625 2.37890625 -5.25 2.5625 C-8.56286973 2.85838629 -11.74945701 3.26600642 -15 4 C-15 4.66 -15 5.32 -15 6 C-15.78375 6.45375 -16.5675 6.9075 -17.375 7.375 C-20.1235949 9.07651113 -20.87921032 10.04519084 -22 13 C-22.66 13 -23.32 13 -24 13 C-22.40594152 6.97800129 -17.83768741 3.6872736 -12.6875 0.625 C-8.48188984 -0.35304887 -4.29687563 -0.15018206 0 0 Z " fill="#98311D" transform="translate(93,150)"/>
<path d="M0 0 C0.99 0.33 1.98 0.66 3 1 C2.51789063 1.64066406 2.03578125 2.28132813 1.5390625 2.94140625 C-2.0757445 7.8914787 -4.8175175 11.95620058 -6 18 C-5.01 18.33 -4.02 18.66 -3 19 C-4.65 18.67 -6.3 18.34 -8 18 C-7.83837003 10.72665157 -4.04781684 5.84449794 0 0 Z " fill="#9A2E1B" transform="translate(109,254)"/>
<path d="M0 0 C0.33 0.66 0.66 1.32 1 2 C0.67 2.66 0.34 3.32 0 4 C-0.66 4 -1.32 4 -2 4 C-2.17015625 4.58007812 -2.3403125 5.16015625 -2.515625 5.7578125 C-4.04142757 10.67609098 -5.50110915 15.10123591 -9 19 C-12.25 19.375 -12.25 19.375 -15 19 C-15 18.34 -15 17.68 -15 17 C-13.35 17.33 -11.7 17.66 -10 18 C-9.58621094 16.92685547 -9.58621094 16.92685547 -9.1640625 15.83203125 C-8.01751478 13.04261145 -6.73772885 10.37709642 -5.375 7.6875 C-4.92898437 6.80449219 -4.48296875 5.92148437 -4.0234375 5.01171875 C-3.68570313 4.34785156 -3.34796875 3.68398438 -3 3 C-2.34 3 -1.68 3 -1 3 C-0.67 2.01 -0.34 1.02 0 0 Z " fill="#A03219" transform="translate(145,40)"/>
<path d="M0 0 C6.27 0 12.54 0 19 0 C18.67 1.32 18.34 2.64 18 4 C17.48953125 3.84660156 16.9790625 3.69320312 16.453125 3.53515625 C13.2250662 2.83094597 10.04581999 2.65111796 6.75 2.4375 C5.48671875 2.35371094 4.2234375 2.26992187 2.921875 2.18359375 C1.95765625 2.12300781 0.9934375 2.06242187 0 2 C0 1.34 0 0.68 0 0 Z " fill="#A33219" transform="translate(92,107)"/>
<path d="M0 0 C3.78881988 1.51552795 3.78881988 1.51552795 4.86328125 3.98046875 C5.8307502 6.15422517 5.8307502 6.15422517 7.98828125 6.94140625 C8.75527344 7.14636719 9.52226562 7.35132813 10.3125 7.5625 C13.92136435 8.62187631 16.85931898 9.87244189 20 12 C19.67 12.66 19.34 13.32 19 14 C3.84965831 7.25512528 3.84965831 7.25512528 0 0 Z " fill="#9F2E18" transform="translate(409,186)"/>
<path d="M0 0 C0.66 0 1.32 0 2 0 C2 4.62 2 9.24 2 14 C-0.31 14.66 -2.62 15.32 -5 16 C-4.67 14.68 -4.34 13.36 -4 12 C-2.68 12 -1.36 12 0 12 C0 8.04 0 4.08 0 0 Z " fill="#9D3119" transform="translate(164,25)"/>
<path d="M0 0 C4.29 0.33 8.58 0.66 13 1 C12 4 12 4 9.5625 5.4375 C6.84333111 7.09552981 6.10592885 8.08436939 5 11 C4.01 10.67 3.02 10.34 2 10 C3.39244639 7.21510722 5.55991988 5.87698471 8 4 C5.36 3.01 2.72 2.02 0 1 C0 0.67 0 0.34 0 0 Z " fill="#9B311C" transform="translate(109,225)"/>
<path d="M0 0 C2.40869175 0.81175273 4.67271052 1.68508314 7 2.6875 C7.64195312 2.94466797 8.28390625 3.20183594 8.9453125 3.46679688 C11.74821255 4.66008173 13.69788609 5.5806596 15.5 8.08203125 C16 10 16 10 15 12 C14.34 12 13.68 12 13 12 C13 10.68 13 9.36 13 8 C12.00097656 7.66226562 11.00195312 7.32453125 9.97265625 6.9765625 C8.66913783 6.52642664 7.36575957 6.07588475 6.0625 5.625 C5.40314453 5.40328125 4.74378906 5.1815625 4.06445312 4.953125 C-0.88671875 3.2265625 -0.88671875 3.2265625 -2 1 C-1.34 0.67 -0.68 0.34 0 0 Z " fill="#9F321B" transform="translate(356,299)"/>
<path d="M0 0 C1.98 0.495 1.98 0.495 4 1 C5.03005835 4.83930838 5.15073484 7.18710174 3.5 10.75 C3.005 11.8225 2.51 12.895 2 14 C2.33 14.66 2.66 15.32 3 16 C1.68 16.33 0.36 16.66 -1 17 C-0.24460432 11.46043165 -0.24460432 11.46043165 1.0625 9 C2.33493948 6.28546244 2.13440171 3.95683751 2 1 C1.34 0.67 0.68 0.34 0 0 Z " fill="#9C311B" transform="translate(149,37)"/>
<path d="M0 0 C4 1 4 1 6 4 C5.67 4.99 5.34 5.98 5 7 C4.34 6.01 3.68 5.02 3 4 C1.02 8.455 1.02 8.455 -1 13 C-1.66 12.67 -2.32 12.34 -3 12 C-2.01 8.04 -1.02 4.08 0 0 Z " fill="#A23118" transform="translate(401,236)"/>
<path d="M0 0 C2.125 0 2.125 0 5 1 C8.39246277 4.54666562 11.07872717 8.1194475 12 13 C10.35 12.67 8.7 12.34 7 12 C6.4465236 9.92446352 6 8.15634036 6 6 C4.71034824 4.62437146 3.37310707 3.29233607 2 2 C1.34 1.34 0.68 0.68 0 0 Z M8 9 C9 11 9 11 9 11 Z " fill="#9C2E1A" transform="translate(99,147)"/>
<path d="M0 0 C1 1 1 1 1.09765625 4.37890625 C1.09098369 5.77347077 1.07902532 7.16801743 1.0625 8.5625 C1.05798828 9.27341797 1.05347656 9.98433594 1.04882812 10.71679688 C1.03700864 12.47790013 1.01907263 14.23896036 1 16 C0.67 16 0.34 16 0 16 C-0.33 11.71 -0.66 7.42 -1 3 C-3.64 3.33 -6.28 3.66 -9 4 C-8.67 3.01 -8.34 2.02 -8 1 C-5.26752652 -0.36623674 -3.01801098 -0.128426 0 0 Z " fill="#9C311B" transform="translate(172,4)"/>
<path d="M0 0 C2.81631641 2.49493496 4.40955981 5.26562818 6.1875 8.5625 C6.71730469 9.53316406 7.24710937 10.50382812 7.79296875 11.50390625 C9 14 9 14 9 16 C5.09638512 14.69879504 4.72586252 13.25438569 2.8125 9.6875 C2.28269531 8.72199219 1.75289063 7.75648438 1.20703125 6.76171875 C0 4 0 4 0 0 Z " fill="#747A79" transform="translate(432,430)"/>
<path d="M0 0 C0.33 0.99 0.66 1.98 1 3 C-0.26886964 4.12721436 -1.54017562 5.25168658 -2.8125 6.375 C-3.52019531 7.00148438 -4.22789062 7.62796875 -4.95703125 8.2734375 C-7 10 -7 10 -10 12 C-9.68861865 8.7220036 -9.32674163 7.31932973 -6.93359375 4.98046875 C-6.10988281 4.38878906 -5.28617188 3.79710937 -4.4375 3.1875 C-3.61121094 2.58292969 -2.78492188 1.97835938 -1.93359375 1.35546875 C-1.29550781 0.90816406 -0.65742188 0.46085937 0 0 Z " fill="#AD3313" transform="translate(157,310)"/>
<path d="M0 0 C0.99 0.33 1.98 0.66 3 1 C3 1.66 3 2.32 3 3 C3.7425 3.2475 4.485 3.495 5.25 3.75 C8.27490317 5.12495599 9.98280015 6.36212327 12 9 C11.75 11.25 11.75 11.25 11 13 C9.68 12.67 8.36 12.34 7 12 C7.99 11.67 8.98 11.34 10 11 C7.49225471 8.42060485 5.03032923 6.0235894 2.1875 3.8125 C1.465625 3.214375 0.74375 2.61625 0 2 C0 1.34 0 0.68 0 0 Z " fill="#A02D19" transform="translate(128,271)"/>
<path d="M0 0 C2 3 2 3 2 6 C1.34 6 0.68 6 0 6 C-0.66 4.68 -1.32 3.36 -2 2 C-2.99 2 -3.98 2 -5 2 C-5.33 3.65 -5.66 5.3 -6 7 C-6.66 7 -7.32 7 -8 7 C-7.74438677 4.6568787 -7.40729228 2.32156597 -7 0 C-4.27584084 -1.36207958 -2.87220643 -0.86166193 0 0 Z " fill="#9F321B" transform="translate(111,69)"/>
<path d="M0 0 C0.51046875 0.23589844 1.0209375 0.47179687 1.546875 0.71484375 C-0.69619528 1.91734533 -2.9460041 3.10175995 -5.203125 4.27734375 C-6.15445313 4.79071289 -6.15445313 4.79071289 -7.125 5.31445312 C-11.90407938 7.77866593 -11.90407938 7.77866593 -14.90625 7.4296875 C-15.41671875 7.19378906 -15.9271875 6.95789063 -16.453125 6.71484375 C-14.21005472 5.51234217 -11.9602459 4.32792755 -9.703125 3.15234375 C-8.75179687 2.63897461 -8.75179687 2.63897461 -7.78125 2.11523438 C-3.00217062 -0.34897843 -3.00217062 -0.34897843 0 0 Z " fill="#777777" transform="translate(148.453125,373.28515625)"/>
<path d="M0 0 C2.375 0.25 2.375 0.25 5 1 C6.25 3 6.25 3 7 5 C7.33 5.33 7.66 5.66 8 6 C8.04063832 7.66617115 8.042721 9.33388095 8 11 C6.35 11.33 4.7 11.66 3 12 C3.33 11.34 3.66 10.68 4 10 C4.99 10 5.98 10 7 10 C6.2485016 6.70984694 6.2485016 6.70984694 2.9375 5 C1.968125 4.34 0.99875 3.68 0 3 C0 2.01 0 1.02 0 0 Z " fill="#98301C" transform="translate(377,276)"/>
<path d="M0 0 C0.66 0 1.32 0 2 0 C2 3.96 2 7.92 2 12 C1.01 12 0.02 12 -1 12 C-0.67 8.04 -0.34 4.08 0 0 Z " fill="#9A331D" transform="translate(325,22)"/>
<path d="M0 0 C3.12826838 0.29100171 4.37427733 1.19380207 6.6875 3.25 C6.3575 3.91 6.0275 4.57 5.6875 5.25 C3.3775 4.26 1.0675 3.27 -1.3125 2.25 C-0.6525 3.57 0.0075 4.89 0.6875 6.25 C-0.3025 6.25 -1.2925 6.25 -2.3125 6.25 C-2.69468767 4.59385343 -3.02645102 2.92542976 -3.3125 1.25 C-2.3125 0.25 -2.3125 0.25 0 0 Z " fill="#A72E18" transform="translate(406.3125,219.75)"/>
<path d="M0 0 C-1.74122549 1.03572896 -3.49336595 2.0531252 -5.25 3.0625 C-6.71179688 3.91521484 -6.71179688 3.91521484 -8.203125 4.78515625 C-11 6 -11 6 -13.359375 5.68359375 C-13.90078125 5.45800781 -14.4421875 5.23242188 -15 5 C-13.06891037 3.96709159 -11.129882 2.94901328 -9.1875 1.9375 C-8.10855469 1.36902344 -7.02960938 0.80054688 -5.91796875 0.21484375 C-3 -1 -3 -1 0 0 Z " fill="#EAC5A5" transform="translate(318,324)"/>
<path d="M0 0 C0.66 0.33 1.32 0.66 2 1 C2 1.66 2 2.32 2 3 C0.4221875 2.6596875 0.4221875 2.6596875 -1.1875 2.3125 C-5.38801417 1.96819556 -6.7162062 2.51227742 -10 5 C-10 2 -10 2 -8.375 0.25 C-5.19386827 -1.42427986 -3.41511384 -0.89089926 0 0 Z " fill="#A23318" transform="translate(377,284)"/>
<path d="M0 0 C3.63396553 1.00943487 4.93391767 1.91605758 7.3125 4.9375 C9 8 9 8 9 11 C8.34 11 7.68 11 7 11 C5.78125 9.28515625 5.78125 9.28515625 4.5 7.0625 C2.81545121 3.94567974 2.81545121 3.94567974 0 2 C0 1.34 0 0.68 0 0 Z " fill="#9E361F" transform="translate(97,115)"/>
<path d="M0 0 C0.66 0.33 1.32 0.66 2 1 C0.92643323 2.15498897 -0.15929788 3.29867867 -1.25 4.4375 C-1.85328125 5.07558594 -2.4565625 5.71367187 -3.078125 6.37109375 C-5.10048016 8.08516306 -6.41270605 8.59358878 -9 9 C-8.06725891 7.87105124 -7.12859878 6.74699124 -6.1875 5.625 C-5.66542969 4.99851562 -5.14335938 4.37203125 -4.60546875 3.7265625 C-3 2 -3 2 0 0 Z " fill="#586268" transform="translate(112,393)"/>
<path d="M0 0 C2.625 -0.1875 2.625 -0.1875 5 0 C3.02 2.31 1.04 4.62 -1 7 C-1.33 5.68 -1.66 4.36 -2 3 C-1.34 2.01 -0.68 1.02 0 0 Z " fill="#B4310F" transform="translate(307,11)"/>
<path d="M0 0 C3.66161578 1.22053859 4.16270474 2.36782304 6.1875 5.5625 C6.71730469 6.38878906 7.24710937 7.21507812 7.79296875 8.06640625 C8.19128906 8.70449219 8.58960937 9.34257812 9 10 C8.01 10 7.02 10 6 10 C4.39453125 8.06640625 4.39453125 8.06640625 2.8125 5.5625 C2.28269531 4.73878906 1.75289063 3.91507813 1.20703125 3.06640625 C0 1 0 1 0 0 Z " fill="#8B2E1A" transform="translate(95,160)"/>
<path d="M0 0 C1.67542976 0.28604898 3.34385343 0.61781233 5 1 C5 1.99 5 2.98 5 4 C3.68 4 2.36 4 1 4 C-0.7511573 5.4166747 -0.7511573 5.4166747 -2 7 C-1.125 1.125 -1.125 1.125 0 0 Z " fill="#992E17" transform="translate(192,4)"/>
<path d="M0 0 C1.65 0 3.3 0 5 0 C4.21625 0.53625 3.4325 1.0725 2.625 1.625 C-0.33426299 4.30242842 -1.04608256 6.18433025 -2 10 C-2.99 9.67 -3.98 9.34 -5 9 C-3.35 6.03 -1.7 3.06 0 0 Z " fill="#A03219" transform="translate(257,8)"/>
<path d="M0 0 C0.65234375 1.796875 0.65234375 1.796875 1 4 C-0.36489377 6.33370072 -2.1419038 8.00594554 -4 10 C-4.33 9.34 -4.66 8.68 -5 8 C-4.00390625 6.0546875 -4.00390625 6.0546875 -2.5625 3.875 C-2.08941406 3.15054688 -1.61632812 2.42609375 -1.12890625 1.6796875 C-0.75636719 1.12539062 -0.38382812 0.57109375 0 0 Z " fill="#9A311D" transform="translate(106,181)"/>
<path d="M0 0 C-3.72965139 2.03435531 -5.66905042 3 -10 3 C-10 2.34 -10 1.68 -10 1 C-3.375 -1.125 -3.375 -1.125 0 0 Z " fill="#B33210" transform="translate(418,175)"/>
<path d="M0 0 C4.29 0.33 8.58 0.66 13 1 C12.67 1.99 12.34 2.98 12 4 C11.34 4 10.68 4 10 4 C10 3.34 10 2.68 10 2 C8.3603125 2.061875 8.3603125 2.061875 6.6875 2.125 C3 2 3 2 0 0 Z " fill="#AE3213" transform="translate(109,225)"/>
<path d="M0 0 C0.66 0.33 1.32 0.66 2 1 C0.02 5.455 0.02 5.455 -2 10 C-2.66 9.67 -3.32 9.34 -4 9 C-2.94124926 5.59687262 -1.99097846 2.98646769 0 0 Z " fill="#A02F18" transform="translate(407,129)"/>
<path d="M0 0 C2.31 0 4.62 0 7 0 C7 0.66 7 1.32 7 2 C6.21625 2.12375 5.4325 2.2475 4.625 2.375 C1.85942178 2.79117993 1.85942178 2.79117993 0 5 C0 3.35 0 1.7 0 0 Z " fill="#A63414" transform="translate(92,246)"/>
<path d="M0 0 C2.97 0 5.94 0 9 0 C6 3 6 3 3.3125 3.1875 C2.1678125 3.0946875 2.1678125 3.0946875 1 3 C0.67 2.01 0.34 1.02 0 0 Z " fill="#9C2F1D" transform="translate(69,166)"/>
<path d="M0 0 C0.66 0 1.32 0 2 0 C2.53012738 1.28788008 3.0488329 2.58046678 3.5625 3.875 C3.99755859 4.95394531 3.99755859 4.95394531 4.44140625 6.0546875 C5 8 5 8 4 10 C3.32845067 8.71086513 2.66291141 7.41859796 2 6.125 C1.62875 5.40570313 1.2575 4.68640625 0.875 3.9453125 C0 2 0 2 0 0 Z " fill="#9F3018" transform="translate(111,54)"/>
<path d="M0 0 C0.94875 0.515625 1.8975 1.03125 2.875 1.5625 C4.421875 2.2740625 4.421875 2.2740625 6 3 C6.66 2.67 7.32 2.34 8 2 C7.34 3.32 6.68 4.64 6 6 C3.5625 5.25 3.5625 5.25 1 4 C0.1875 1.875 0.1875 1.875 0 0 Z " fill="#A63017" transform="translate(176,29)"/>
<path d="M0 0 C3 3.75 3 3.75 3 6 C1.35 5.67 -0.3 5.34 -2 5 C-2.33 3.68 -2.66 2.36 -3 1 C-2.01 1.495 -2.01 1.495 -1 2 C-0.67 1.34 -0.34 0.68 0 0 Z " fill="#A53317" transform="translate(108,154)"/>
</svg>
